M48
;DRILL file {KiCad 4.0.5+dfsg1-4} date Sat Jul  7 16:25:00 2018
;FORMAT={3:3/ absolute / metric / suppress leading zeros}
FMAT,2
METRIC,TZ
T1C0.800
T2C1.001
T3C1.016
T4C1.200
T5C1.500
%
G90
G05
M71
T1
X169000Y-115000
X169000Y-117540
X169000Y-120080
X169000Y-122620
X176620Y-115000
X176620Y-117540
X176620Y-120080
X176620Y-122620
X182000Y-135000
T2
X149000Y-120000
X151540Y-120000
X154000Y-123840
X154000Y-134000
X158000Y-116840
X158000Y-127000
X169000Y-107000
X179160Y-107000
X187460Y-120000
X188840Y-131000
X189000Y-109000
X190000Y-120000
X199000Y-131000
X199160Y-109000
T3
X183000Y-110920
X183000Y-113460
X183000Y-116000
T4
X158000Y-106000
X158920Y-135000
X160540Y-106000
X161460Y-135000
X164000Y-135000
X168920Y-135000
X171460Y-135000
X174000Y-135000
X201000Y-116000
X201000Y-118540
T5
X150000Y-112000
T0
M30
