G04 #@! TF.FileFunction,Soldermask,Bot*
%FSLAX46Y46*%
G04 Gerber Fmt 4.6, Leading zero omitted, Abs format (unit mm)*
G04 Created by KiCad (PCBNEW 4.0.5+dfsg1-4) date Sat Jul  7 16:24:38 2018*
%MOMM*%
%LPD*%
G01*
G04 APERTURE LIST*
%ADD10C,0.100000*%
%ADD11R,2.300000X2.400000*%
%ADD12C,2.300000*%
%ADD13C,2.398980*%
%ADD14O,2.000000X2.000000*%
%ADD15R,2.400000X3.000000*%
%ADD16O,2.400000X3.000000*%
%ADD17R,3.000000X2.400000*%
%ADD18O,3.000000X2.400000*%
%ADD19C,3.400000*%
%ADD20C,1.900000*%
%ADD21R,2.432000X2.127200*%
%ADD22O,2.432000X2.127200*%
%ADD23C,2.900000*%
G04 APERTURE END LIST*
D10*
D11*
X149000000Y-120000000D03*
D12*
X151540000Y-120000000D03*
D13*
X158000000Y-127000000D03*
X158000000Y-116840000D03*
D14*
X169000000Y-115000000D03*
X169000000Y-117540000D03*
X169000000Y-120080000D03*
X169000000Y-122620000D03*
X176620000Y-122620000D03*
X176620000Y-120080000D03*
X176620000Y-117540000D03*
X176620000Y-115000000D03*
D11*
X190000000Y-120000000D03*
D12*
X187460000Y-120000000D03*
D15*
X164000000Y-135000000D03*
D16*
X161460000Y-135000000D03*
X158920000Y-135000000D03*
D15*
X174000000Y-135000000D03*
D16*
X171460000Y-135000000D03*
X168920000Y-135000000D03*
D15*
X158000000Y-106000000D03*
D16*
X160540000Y-106000000D03*
D17*
X201000000Y-116000000D03*
D18*
X201000000Y-118540000D03*
D19*
X150000000Y-112000000D03*
D20*
X182000000Y-135000000D03*
D21*
X183000000Y-116000000D03*
D22*
X183000000Y-113460000D03*
X183000000Y-110920000D03*
D13*
X199000000Y-131000000D03*
X188840000Y-131000000D03*
X189000000Y-109000000D03*
X199160000Y-109000000D03*
X154000000Y-134000000D03*
X154000000Y-123840000D03*
X169000000Y-107000000D03*
X179160000Y-107000000D03*
D23*
X150000000Y-105000000D03*
X150000000Y-137000000D03*
X202000000Y-105000000D03*
X202000000Y-137000000D03*
M02*
