G04 #@! TF.FileFunction,Legend,Top*
%FSLAX46Y46*%
G04 Gerber Fmt 4.6, Leading zero omitted, Abs format (unit mm)*
G04 Created by KiCad (PCBNEW 4.0.5+dfsg1-4) date Sat Jul  7 16:24:38 2018*
%MOMM*%
%LPD*%
G01*
G04 APERTURE LIST*
%ADD10C,0.100000*%
%ADD11C,0.300000*%
%ADD12C,0.200000*%
%ADD13C,0.150000*%
G04 APERTURE END LIST*
D10*
D11*
X186964286Y-123250000D02*
X186821429Y-123178571D01*
X186607143Y-123178571D01*
X186392858Y-123250000D01*
X186250000Y-123392857D01*
X186178572Y-123535714D01*
X186107143Y-123821429D01*
X186107143Y-124035714D01*
X186178572Y-124321429D01*
X186250000Y-124464286D01*
X186392858Y-124607143D01*
X186607143Y-124678571D01*
X186750000Y-124678571D01*
X186964286Y-124607143D01*
X187035715Y-124535714D01*
X187035715Y-124035714D01*
X186750000Y-124035714D01*
X187678572Y-124678571D02*
X187678572Y-123678571D01*
X187678572Y-123964286D02*
X187750000Y-123821429D01*
X187821429Y-123750000D01*
X187964286Y-123678571D01*
X188107143Y-123678571D01*
X189178571Y-124607143D02*
X189035714Y-124678571D01*
X188750000Y-124678571D01*
X188607143Y-124607143D01*
X188535714Y-124464286D01*
X188535714Y-123892857D01*
X188607143Y-123750000D01*
X188750000Y-123678571D01*
X189035714Y-123678571D01*
X189178571Y-123750000D01*
X189250000Y-123892857D01*
X189250000Y-124035714D01*
X188535714Y-124178571D01*
X190464285Y-124607143D02*
X190321428Y-124678571D01*
X190035714Y-124678571D01*
X189892857Y-124607143D01*
X189821428Y-124464286D01*
X189821428Y-123892857D01*
X189892857Y-123750000D01*
X190035714Y-123678571D01*
X190321428Y-123678571D01*
X190464285Y-123750000D01*
X190535714Y-123892857D01*
X190535714Y-124035714D01*
X189821428Y-124178571D01*
X191178571Y-123678571D02*
X191178571Y-124678571D01*
X191178571Y-123821429D02*
X191249999Y-123750000D01*
X191392857Y-123678571D01*
X191607142Y-123678571D01*
X191749999Y-123750000D01*
X191821428Y-123892857D01*
X191821428Y-124678571D01*
X149392858Y-114892857D02*
X149607144Y-114964286D01*
X149678572Y-115035714D01*
X149750001Y-115178571D01*
X149750001Y-115392857D01*
X149678572Y-115535714D01*
X149607144Y-115607143D01*
X149464286Y-115678571D01*
X148892858Y-115678571D01*
X148892858Y-114178571D01*
X149392858Y-114178571D01*
X149535715Y-114250000D01*
X149607144Y-114321429D01*
X149678572Y-114464286D01*
X149678572Y-114607143D01*
X149607144Y-114750000D01*
X149535715Y-114821429D01*
X149392858Y-114892857D01*
X148892858Y-114892857D01*
X150607144Y-115678571D02*
X150464286Y-115607143D01*
X150392858Y-115464286D01*
X150392858Y-114178571D01*
X151821429Y-114678571D02*
X151821429Y-115678571D01*
X151178572Y-114678571D02*
X151178572Y-115464286D01*
X151250000Y-115607143D01*
X151392858Y-115678571D01*
X151607143Y-115678571D01*
X151750000Y-115607143D01*
X151821429Y-115535714D01*
X153107143Y-115607143D02*
X152964286Y-115678571D01*
X152678572Y-115678571D01*
X152535715Y-115607143D01*
X152464286Y-115464286D01*
X152464286Y-114892857D01*
X152535715Y-114750000D01*
X152678572Y-114678571D01*
X152964286Y-114678571D01*
X153107143Y-114750000D01*
X153178572Y-114892857D01*
X153178572Y-115035714D01*
X152464286Y-115178571D01*
D12*
X173000000Y-114000000D02*
G75*
G03X174000000Y-113000000I0J1000000D01*
G01*
X172000000Y-113000000D02*
G75*
G03X173000000Y-114000000I1000000J0D01*
G01*
D11*
X154428572Y-111678571D02*
X154428572Y-110178571D01*
X155000000Y-110178571D01*
X155142858Y-110250000D01*
X155214286Y-110321429D01*
X155285715Y-110464286D01*
X155285715Y-110678571D01*
X155214286Y-110821429D01*
X155142858Y-110892857D01*
X155000000Y-110964286D01*
X154428572Y-110964286D01*
X156142858Y-111678571D02*
X156000000Y-111607143D01*
X155928572Y-111535714D01*
X155857143Y-111392857D01*
X155857143Y-110964286D01*
X155928572Y-110821429D01*
X156000000Y-110750000D01*
X156142858Y-110678571D01*
X156357143Y-110678571D01*
X156500000Y-110750000D01*
X156571429Y-110821429D01*
X156642858Y-110964286D01*
X156642858Y-111392857D01*
X156571429Y-111535714D01*
X156500000Y-111607143D01*
X156357143Y-111678571D01*
X156142858Y-111678571D01*
X157142858Y-110678571D02*
X157428572Y-111678571D01*
X157714286Y-110964286D01*
X158000001Y-111678571D01*
X158285715Y-110678571D01*
X159428572Y-111607143D02*
X159285715Y-111678571D01*
X159000001Y-111678571D01*
X158857144Y-111607143D01*
X158785715Y-111464286D01*
X158785715Y-110892857D01*
X158857144Y-110750000D01*
X159000001Y-110678571D01*
X159285715Y-110678571D01*
X159428572Y-110750000D01*
X159500001Y-110892857D01*
X159500001Y-111035714D01*
X158785715Y-111178571D01*
X160142858Y-111678571D02*
X160142858Y-110678571D01*
X160142858Y-110964286D02*
X160214286Y-110821429D01*
X160285715Y-110750000D01*
X160428572Y-110678571D01*
X160571429Y-110678571D01*
X162214286Y-111678571D02*
X162214286Y-110178571D01*
X162928572Y-110678571D02*
X162928572Y-111678571D01*
X162928572Y-110821429D02*
X163000000Y-110750000D01*
X163142858Y-110678571D01*
X163357143Y-110678571D01*
X163500000Y-110750000D01*
X163571429Y-110892857D01*
X163571429Y-111678571D01*
X186178572Y-113678571D02*
X185678572Y-112964286D01*
X185321429Y-113678571D02*
X185321429Y-112178571D01*
X185892857Y-112178571D01*
X186035715Y-112250000D01*
X186107143Y-112321429D01*
X186178572Y-112464286D01*
X186178572Y-112678571D01*
X186107143Y-112821429D01*
X186035715Y-112892857D01*
X185892857Y-112964286D01*
X185321429Y-112964286D01*
X187392857Y-113607143D02*
X187250000Y-113678571D01*
X186964286Y-113678571D01*
X186821429Y-113607143D01*
X186750000Y-113464286D01*
X186750000Y-112892857D01*
X186821429Y-112750000D01*
X186964286Y-112678571D01*
X187250000Y-112678571D01*
X187392857Y-112750000D01*
X187464286Y-112892857D01*
X187464286Y-113035714D01*
X186750000Y-113178571D01*
X188321429Y-113678571D02*
X188178571Y-113607143D01*
X188107143Y-113464286D01*
X188107143Y-112178571D01*
X189535714Y-113678571D02*
X189535714Y-112892857D01*
X189464285Y-112750000D01*
X189321428Y-112678571D01*
X189035714Y-112678571D01*
X188892857Y-112750000D01*
X189535714Y-113607143D02*
X189392857Y-113678571D01*
X189035714Y-113678571D01*
X188892857Y-113607143D01*
X188821428Y-113464286D01*
X188821428Y-113321429D01*
X188892857Y-113178571D01*
X189035714Y-113107143D01*
X189392857Y-113107143D01*
X189535714Y-113035714D01*
X190107143Y-112678571D02*
X190464286Y-113678571D01*
X190821428Y-112678571D02*
X190464286Y-113678571D01*
X190321428Y-114035714D01*
X190250000Y-114107143D01*
X190107143Y-114178571D01*
X185250000Y-135678571D02*
X184392857Y-135678571D01*
X184821429Y-135678571D02*
X184821429Y-134178571D01*
X184678572Y-134392857D01*
X184535714Y-134535714D01*
X184392857Y-134607143D01*
X185892857Y-135107143D02*
X187035714Y-135107143D01*
X187607143Y-134678571D02*
X187892857Y-135678571D01*
X188178571Y-134964286D01*
X188464286Y-135678571D01*
X188750000Y-134678571D01*
X189321429Y-135678571D02*
X189321429Y-134678571D01*
X189321429Y-134178571D02*
X189250000Y-134250000D01*
X189321429Y-134321429D01*
X189392857Y-134250000D01*
X189321429Y-134178571D01*
X189321429Y-134321429D01*
X190035715Y-135678571D02*
X190035715Y-134678571D01*
X190035715Y-134964286D02*
X190107143Y-134821429D01*
X190178572Y-134750000D01*
X190321429Y-134678571D01*
X190464286Y-134678571D01*
X191535714Y-135607143D02*
X191392857Y-135678571D01*
X191107143Y-135678571D01*
X190964286Y-135607143D01*
X190892857Y-135464286D01*
X190892857Y-134892857D01*
X190964286Y-134750000D01*
X191107143Y-134678571D01*
X191392857Y-134678571D01*
X191535714Y-134750000D01*
X191607143Y-134892857D01*
X191607143Y-135035714D01*
X190892857Y-135178571D01*
X151857143Y-108250000D02*
X151714286Y-108178571D01*
X151500000Y-108178571D01*
X151285715Y-108250000D01*
X151142857Y-108392857D01*
X151071429Y-108535714D01*
X151000000Y-108821429D01*
X151000000Y-109035714D01*
X151071429Y-109321429D01*
X151142857Y-109464286D01*
X151285715Y-109607143D01*
X151500000Y-109678571D01*
X151642857Y-109678571D01*
X151857143Y-109607143D01*
X151928572Y-109535714D01*
X151928572Y-109035714D01*
X151642857Y-109035714D01*
X152571429Y-109678571D02*
X152571429Y-108178571D01*
X153428572Y-109678571D01*
X153428572Y-108178571D01*
X154142858Y-109678571D02*
X154142858Y-108178571D01*
X154500001Y-108178571D01*
X154714286Y-108250000D01*
X154857144Y-108392857D01*
X154928572Y-108535714D01*
X155000001Y-108821429D01*
X155000001Y-109035714D01*
X154928572Y-109321429D01*
X154857144Y-109464286D01*
X154714286Y-109607143D01*
X154500001Y-109678571D01*
X154142858Y-109678571D01*
X166428572Y-115678571D02*
X165571429Y-115678571D01*
X166000001Y-115678571D02*
X166000001Y-114178571D01*
X165857144Y-114392857D01*
X165714286Y-114535714D01*
X165571429Y-114607143D01*
X176321429Y-139678571D02*
X176321429Y-138178571D01*
X177035715Y-138678571D02*
X177035715Y-139678571D01*
X177035715Y-138821429D02*
X177107143Y-138750000D01*
X177250001Y-138678571D01*
X177464286Y-138678571D01*
X177607143Y-138750000D01*
X177678572Y-138892857D01*
X177678572Y-139678571D01*
X153750000Y-138178571D02*
X154035714Y-138178571D01*
X154178572Y-138250000D01*
X154321429Y-138392857D01*
X154392857Y-138678571D01*
X154392857Y-139178571D01*
X154321429Y-139464286D01*
X154178572Y-139607143D01*
X154035714Y-139678571D01*
X153750000Y-139678571D01*
X153607143Y-139607143D01*
X153464286Y-139464286D01*
X153392857Y-139178571D01*
X153392857Y-138678571D01*
X153464286Y-138392857D01*
X153607143Y-138250000D01*
X153750000Y-138178571D01*
X155678572Y-138678571D02*
X155678572Y-139678571D01*
X155035715Y-138678571D02*
X155035715Y-139464286D01*
X155107143Y-139607143D01*
X155250001Y-139678571D01*
X155464286Y-139678571D01*
X155607143Y-139607143D01*
X155678572Y-139535714D01*
X156178572Y-138678571D02*
X156750001Y-138678571D01*
X156392858Y-138178571D02*
X156392858Y-139464286D01*
X156464286Y-139607143D01*
X156607144Y-139678571D01*
X156750001Y-139678571D01*
X198214286Y-121892857D02*
X198428572Y-121964286D01*
X198500000Y-122035714D01*
X198571429Y-122178571D01*
X198571429Y-122392857D01*
X198500000Y-122535714D01*
X198428572Y-122607143D01*
X198285714Y-122678571D01*
X197714286Y-122678571D01*
X197714286Y-121178571D01*
X198214286Y-121178571D01*
X198357143Y-121250000D01*
X198428572Y-121321429D01*
X198500000Y-121464286D01*
X198500000Y-121607143D01*
X198428572Y-121750000D01*
X198357143Y-121821429D01*
X198214286Y-121892857D01*
X197714286Y-121892857D01*
X199857143Y-121678571D02*
X199857143Y-122678571D01*
X199214286Y-121678571D02*
X199214286Y-122464286D01*
X199285714Y-122607143D01*
X199428572Y-122678571D01*
X199642857Y-122678571D01*
X199785714Y-122607143D01*
X199857143Y-122535714D01*
X200357143Y-121678571D02*
X200928572Y-121678571D01*
X200571429Y-121178571D02*
X200571429Y-122464286D01*
X200642857Y-122607143D01*
X200785715Y-122678571D01*
X200928572Y-122678571D01*
X201214286Y-121678571D02*
X201785715Y-121678571D01*
X201428572Y-121178571D02*
X201428572Y-122464286D01*
X201500000Y-122607143D01*
X201642858Y-122678571D01*
X201785715Y-122678571D01*
X202500001Y-122678571D02*
X202357143Y-122607143D01*
X202285715Y-122535714D01*
X202214286Y-122392857D01*
X202214286Y-121964286D01*
X202285715Y-121821429D01*
X202357143Y-121750000D01*
X202500001Y-121678571D01*
X202714286Y-121678571D01*
X202857143Y-121750000D01*
X202928572Y-121821429D01*
X203000001Y-121964286D01*
X203000001Y-122392857D01*
X202928572Y-122535714D01*
X202857143Y-122607143D01*
X202714286Y-122678571D01*
X202500001Y-122678571D01*
X203642858Y-121678571D02*
X203642858Y-122678571D01*
X203642858Y-121821429D02*
X203714286Y-121750000D01*
X203857144Y-121678571D01*
X204071429Y-121678571D01*
X204214286Y-121750000D01*
X204285715Y-121892857D01*
X204285715Y-122678571D01*
D13*
X147785112Y-121524904D02*
G75*
G03X147770000Y-118500000I2484888J1524904D01*
G01*
X147770000Y-121500000D02*
X147770000Y-118500000D01*
X152787936Y-120000000D02*
G75*
G03X152787936Y-120000000I-2517936J0D01*
G01*
X156730000Y-124460000D02*
X156730000Y-119380000D01*
X156730000Y-119380000D02*
X159270000Y-119380000D01*
X159270000Y-119380000D02*
X159270000Y-124460000D01*
X159270000Y-124460000D02*
X156730000Y-124460000D01*
X158000000Y-124460000D02*
X158000000Y-125730000D01*
X158000000Y-119380000D02*
X158000000Y-118110000D01*
X169135000Y-112705000D02*
X169135000Y-113975000D01*
X176485000Y-112705000D02*
X176485000Y-113975000D01*
X176485000Y-124915000D02*
X176485000Y-123645000D01*
X169135000Y-124915000D02*
X169135000Y-123645000D01*
X169135000Y-112705000D02*
X176485000Y-112705000D01*
X169135000Y-124915000D02*
X176485000Y-124915000D01*
X169135000Y-113975000D02*
X168200000Y-113975000D01*
X191214888Y-118475096D02*
G75*
G03X191230000Y-121500000I-2484888J-1524904D01*
G01*
X191230000Y-118500000D02*
X191230000Y-121500000D01*
X191247936Y-120000000D02*
G75*
G03X191247936Y-120000000I-2517936J0D01*
G01*
X165370000Y-138020000D02*
X165370000Y-132020000D01*
X165370000Y-132020000D02*
X157550000Y-132020000D01*
X157550000Y-132020000D02*
X157550000Y-138020000D01*
X157550000Y-138020000D02*
X165370000Y-138020000D01*
X164000000Y-132020000D02*
X164000000Y-133020000D01*
X164000000Y-133020000D02*
X158920000Y-133020000D01*
X158920000Y-133020000D02*
X158920000Y-132020000D01*
X164000000Y-133020000D02*
X163750000Y-133450000D01*
X163750000Y-133450000D02*
X159170000Y-133450000D01*
X159170000Y-133450000D02*
X158920000Y-133020000D01*
X163750000Y-132020000D02*
X163750000Y-133020000D01*
X159170000Y-132020000D02*
X159170000Y-133020000D01*
X164800000Y-138020000D02*
X164800000Y-137400000D01*
X164800000Y-137400000D02*
X163200000Y-137400000D01*
X163200000Y-137400000D02*
X163200000Y-138020000D01*
X162260000Y-138020000D02*
X162260000Y-137400000D01*
X162260000Y-137400000D02*
X160660000Y-137400000D01*
X160660000Y-137400000D02*
X160660000Y-138020000D01*
X159720000Y-138020000D02*
X159720000Y-137400000D01*
X159720000Y-137400000D02*
X158120000Y-137400000D01*
X158120000Y-137400000D02*
X158120000Y-138020000D01*
X175370000Y-138020000D02*
X175370000Y-132020000D01*
X175370000Y-132020000D02*
X167550000Y-132020000D01*
X167550000Y-132020000D02*
X167550000Y-138020000D01*
X167550000Y-138020000D02*
X175370000Y-138020000D01*
X174000000Y-132020000D02*
X174000000Y-133020000D01*
X174000000Y-133020000D02*
X168920000Y-133020000D01*
X168920000Y-133020000D02*
X168920000Y-132020000D01*
X174000000Y-133020000D02*
X173750000Y-133450000D01*
X173750000Y-133450000D02*
X169170000Y-133450000D01*
X169170000Y-133450000D02*
X168920000Y-133020000D01*
X173750000Y-132020000D02*
X173750000Y-133020000D01*
X169170000Y-132020000D02*
X169170000Y-133020000D01*
X174800000Y-138020000D02*
X174800000Y-137400000D01*
X174800000Y-137400000D02*
X173200000Y-137400000D01*
X173200000Y-137400000D02*
X173200000Y-138020000D01*
X172260000Y-138020000D02*
X172260000Y-137400000D01*
X172260000Y-137400000D02*
X170660000Y-137400000D01*
X170660000Y-137400000D02*
X170660000Y-138020000D01*
X169720000Y-138020000D02*
X169720000Y-137400000D01*
X169720000Y-137400000D02*
X168120000Y-137400000D01*
X168120000Y-137400000D02*
X168120000Y-138020000D01*
X156630000Y-102980000D02*
X156630000Y-108980000D01*
X156630000Y-108980000D02*
X161910000Y-108980000D01*
X161910000Y-108980000D02*
X161910000Y-102980000D01*
X161910000Y-102980000D02*
X156630000Y-102980000D01*
X158000000Y-108980000D02*
X158000000Y-107980000D01*
X158000000Y-107980000D02*
X160540000Y-107980000D01*
X160540000Y-107980000D02*
X160540000Y-108980000D01*
X158000000Y-107980000D02*
X158250000Y-107550000D01*
X158250000Y-107550000D02*
X160290000Y-107550000D01*
X160290000Y-107550000D02*
X160540000Y-107980000D01*
X158250000Y-108980000D02*
X158250000Y-107980000D01*
X160290000Y-108980000D02*
X160290000Y-107980000D01*
X157200000Y-102980000D02*
X157200000Y-103600000D01*
X157200000Y-103600000D02*
X158800000Y-103600000D01*
X158800000Y-103600000D02*
X158800000Y-102980000D01*
X159740000Y-102980000D02*
X159740000Y-103600000D01*
X159740000Y-103600000D02*
X161340000Y-103600000D01*
X161340000Y-103600000D02*
X161340000Y-102980000D01*
X204020000Y-114630000D02*
X198020000Y-114630000D01*
X198020000Y-114630000D02*
X198020000Y-119910000D01*
X198020000Y-119910000D02*
X204020000Y-119910000D01*
X204020000Y-119910000D02*
X204020000Y-114630000D01*
X198020000Y-116000000D02*
X199020000Y-116000000D01*
X199020000Y-116000000D02*
X199020000Y-118540000D01*
X199020000Y-118540000D02*
X198020000Y-118540000D01*
X199020000Y-116000000D02*
X199450000Y-116250000D01*
X199450000Y-116250000D02*
X199450000Y-118290000D01*
X199450000Y-118290000D02*
X199020000Y-118540000D01*
X198020000Y-116250000D02*
X199020000Y-116250000D01*
X198020000Y-118290000D02*
X199020000Y-118290000D01*
X204020000Y-115200000D02*
X203400000Y-115200000D01*
X203400000Y-115200000D02*
X203400000Y-116800000D01*
X203400000Y-116800000D02*
X204020000Y-116800000D01*
X204020000Y-117740000D02*
X203400000Y-117740000D01*
X203400000Y-117740000D02*
X203400000Y-119340000D01*
X203400000Y-119340000D02*
X204020000Y-119340000D01*
X184270000Y-114730000D02*
X184270000Y-109650000D01*
X184270000Y-109650000D02*
X181730000Y-109650000D01*
X181730000Y-109650000D02*
X181730000Y-114730000D01*
X181450000Y-117550000D02*
X181450000Y-116000000D01*
X181730000Y-114730000D02*
X184270000Y-114730000D01*
X184550000Y-116000000D02*
X184550000Y-117550000D01*
X184550000Y-117550000D02*
X181450000Y-117550000D01*
X196460000Y-132270000D02*
X191380000Y-132270000D01*
X191380000Y-132270000D02*
X191380000Y-129730000D01*
X191380000Y-129730000D02*
X196460000Y-129730000D01*
X196460000Y-129730000D02*
X196460000Y-132270000D01*
X196460000Y-131000000D02*
X197730000Y-131000000D01*
X191380000Y-131000000D02*
X190110000Y-131000000D01*
X191540000Y-107730000D02*
X196620000Y-107730000D01*
X196620000Y-107730000D02*
X196620000Y-110270000D01*
X196620000Y-110270000D02*
X191540000Y-110270000D01*
X191540000Y-110270000D02*
X191540000Y-107730000D01*
X191540000Y-109000000D02*
X190270000Y-109000000D01*
X196620000Y-109000000D02*
X197890000Y-109000000D01*
X152730000Y-131460000D02*
X152730000Y-126380000D01*
X152730000Y-126380000D02*
X155270000Y-126380000D01*
X155270000Y-126380000D02*
X155270000Y-131460000D01*
X155270000Y-131460000D02*
X152730000Y-131460000D01*
X154000000Y-131460000D02*
X154000000Y-132730000D01*
X154000000Y-126380000D02*
X154000000Y-125110000D01*
X171540000Y-105730000D02*
X176620000Y-105730000D01*
X176620000Y-105730000D02*
X176620000Y-108270000D01*
X176620000Y-108270000D02*
X171540000Y-108270000D01*
X171540000Y-108270000D02*
X171540000Y-105730000D01*
X171540000Y-107000000D02*
X170270000Y-107000000D01*
X176620000Y-107000000D02*
X177890000Y-107000000D01*
X149785905Y-124516381D02*
X149785905Y-123516381D01*
X150024000Y-123516381D01*
X150166858Y-123564000D01*
X150262096Y-123659238D01*
X150309715Y-123754476D01*
X150357334Y-123944952D01*
X150357334Y-124087810D01*
X150309715Y-124278286D01*
X150262096Y-124373524D01*
X150166858Y-124468762D01*
X150024000Y-124516381D01*
X149785905Y-124516381D01*
X150738286Y-123611619D02*
X150785905Y-123564000D01*
X150881143Y-123516381D01*
X151119239Y-123516381D01*
X151214477Y-123564000D01*
X151262096Y-123611619D01*
X151309715Y-123706857D01*
X151309715Y-123802095D01*
X151262096Y-123944952D01*
X150690667Y-124516381D01*
X151309715Y-124516381D01*
X146833095Y-122357381D02*
X146833095Y-121357381D01*
X147404524Y-122357381D02*
X146975952Y-121785952D01*
X147404524Y-121357381D02*
X146833095Y-121928810D01*
X154952261Y-121837746D02*
X154476070Y-122171080D01*
X154952261Y-122409175D02*
X153952261Y-122409175D01*
X153952261Y-122028222D01*
X153999880Y-121932984D01*
X154047499Y-121885365D01*
X154142737Y-121837746D01*
X154285594Y-121837746D01*
X154380832Y-121885365D01*
X154428451Y-121932984D01*
X154476070Y-122028222D01*
X154476070Y-122409175D01*
X154952261Y-120885365D02*
X154952261Y-121456794D01*
X154952261Y-121171080D02*
X153952261Y-121171080D01*
X154095118Y-121266318D01*
X154190356Y-121361556D01*
X154237975Y-121456794D01*
X168023810Y-110232381D02*
X168023810Y-109232381D01*
X169071429Y-110137143D02*
X169023810Y-110184762D01*
X168880953Y-110232381D01*
X168785715Y-110232381D01*
X168642857Y-110184762D01*
X168547619Y-110089524D01*
X168500000Y-109994286D01*
X168452381Y-109803810D01*
X168452381Y-109660952D01*
X168500000Y-109470476D01*
X168547619Y-109375238D01*
X168642857Y-109280000D01*
X168785715Y-109232381D01*
X168880953Y-109232381D01*
X169023810Y-109280000D01*
X169071429Y-109327619D01*
X170023810Y-110232381D02*
X169452381Y-110232381D01*
X169738095Y-110232381D02*
X169738095Y-109232381D01*
X169642857Y-109375238D01*
X169547619Y-109470476D01*
X169452381Y-109518095D01*
X187737905Y-116388381D02*
X187737905Y-115388381D01*
X187976000Y-115388381D01*
X188118858Y-115436000D01*
X188214096Y-115531238D01*
X188261715Y-115626476D01*
X188309334Y-115816952D01*
X188309334Y-115959810D01*
X188261715Y-116150286D01*
X188214096Y-116245524D01*
X188118858Y-116340762D01*
X187976000Y-116388381D01*
X187737905Y-116388381D01*
X189261715Y-116388381D02*
X188690286Y-116388381D01*
X188976000Y-116388381D02*
X188976000Y-115388381D01*
X188880762Y-115531238D01*
X188785524Y-115626476D01*
X188690286Y-115674095D01*
X191643095Y-118547381D02*
X191643095Y-117547381D01*
X192214524Y-118547381D02*
X191785952Y-117975952D01*
X192214524Y-117547381D02*
X191643095Y-118118810D01*
X162666667Y-138952381D02*
X162666667Y-139666667D01*
X162619047Y-139809524D01*
X162523809Y-139904762D01*
X162380952Y-139952381D01*
X162285714Y-139952381D01*
X163666667Y-139952381D02*
X163095238Y-139952381D01*
X163380952Y-139952381D02*
X163380952Y-138952381D01*
X163285714Y-139095238D01*
X163190476Y-139190476D01*
X163095238Y-139238095D01*
X172666667Y-138952381D02*
X172666667Y-139666667D01*
X172619047Y-139809524D01*
X172523809Y-139904762D01*
X172380952Y-139952381D01*
X172285714Y-139952381D01*
X173095238Y-139047619D02*
X173142857Y-139000000D01*
X173238095Y-138952381D01*
X173476191Y-138952381D01*
X173571429Y-139000000D01*
X173619048Y-139047619D01*
X173666667Y-139142857D01*
X173666667Y-139238095D01*
X173619048Y-139380952D01*
X173047619Y-139952381D01*
X173666667Y-139952381D01*
X158666667Y-100952381D02*
X158666667Y-101666667D01*
X158619047Y-101809524D01*
X158523809Y-101904762D01*
X158380952Y-101952381D01*
X158285714Y-101952381D01*
X159047619Y-100952381D02*
X159666667Y-100952381D01*
X159333333Y-101333333D01*
X159476191Y-101333333D01*
X159571429Y-101380952D01*
X159619048Y-101428571D01*
X159666667Y-101523810D01*
X159666667Y-101761905D01*
X159619048Y-101857143D01*
X159571429Y-101904762D01*
X159476191Y-101952381D01*
X159190476Y-101952381D01*
X159095238Y-101904762D01*
X159047619Y-101857143D01*
X204952381Y-117333333D02*
X205666667Y-117333333D01*
X205809524Y-117380953D01*
X205904762Y-117476191D01*
X205952381Y-117619048D01*
X205952381Y-117714286D01*
X205285714Y-116428571D02*
X205952381Y-116428571D01*
X204904762Y-116666667D02*
X205619048Y-116904762D01*
X205619048Y-116285714D01*
X149095238Y-108452381D02*
X149333333Y-109452381D01*
X149523810Y-108738095D01*
X149714286Y-109452381D01*
X149952381Y-108452381D01*
X150857143Y-109452381D02*
X150285714Y-109452381D01*
X150571428Y-109452381D02*
X150571428Y-108452381D01*
X150476190Y-108595238D01*
X150380952Y-108690476D01*
X150285714Y-108738095D01*
X181095238Y-132452381D02*
X181333333Y-133452381D01*
X181523810Y-132738095D01*
X181714286Y-133452381D01*
X181952381Y-132452381D01*
X182285714Y-132547619D02*
X182333333Y-132500000D01*
X182428571Y-132452381D01*
X182666667Y-132452381D01*
X182761905Y-132500000D01*
X182809524Y-132547619D01*
X182857143Y-132642857D01*
X182857143Y-132738095D01*
X182809524Y-132880952D01*
X182238095Y-133452381D01*
X182857143Y-133452381D01*
X182261905Y-121552381D02*
X182261905Y-120552381D01*
X182642858Y-120552381D01*
X182738096Y-120600000D01*
X182785715Y-120647619D01*
X182833334Y-120742857D01*
X182833334Y-120885714D01*
X182785715Y-120980952D01*
X182738096Y-121028571D01*
X182642858Y-121076190D01*
X182261905Y-121076190D01*
X183785715Y-121552381D02*
X183214286Y-121552381D01*
X183500000Y-121552381D02*
X183500000Y-120552381D01*
X183404762Y-120695238D01*
X183309524Y-120790476D01*
X183214286Y-120838095D01*
X193504414Y-134952501D02*
X193171080Y-134476310D01*
X192932985Y-134952501D02*
X192932985Y-133952501D01*
X193313938Y-133952501D01*
X193409176Y-134000120D01*
X193456795Y-134047739D01*
X193504414Y-134142977D01*
X193504414Y-134285834D01*
X193456795Y-134381072D01*
X193409176Y-134428691D01*
X193313938Y-134476310D01*
X192932985Y-134476310D01*
X193885366Y-134047739D02*
X193932985Y-134000120D01*
X194028223Y-133952501D01*
X194266319Y-133952501D01*
X194361557Y-134000120D01*
X194409176Y-134047739D01*
X194456795Y-134142977D01*
X194456795Y-134238215D01*
X194409176Y-134381072D01*
X193837747Y-134952501D01*
X194456795Y-134952501D01*
X194162254Y-105952261D02*
X193828920Y-105476070D01*
X193590825Y-105952261D02*
X193590825Y-104952261D01*
X193971778Y-104952261D01*
X194067016Y-104999880D01*
X194114635Y-105047499D01*
X194162254Y-105142737D01*
X194162254Y-105285594D01*
X194114635Y-105380832D01*
X194067016Y-105428451D01*
X193971778Y-105476070D01*
X193590825Y-105476070D01*
X194495587Y-104952261D02*
X195114635Y-104952261D01*
X194781301Y-105333213D01*
X194924159Y-105333213D01*
X195019397Y-105380832D01*
X195067016Y-105428451D01*
X195114635Y-105523690D01*
X195114635Y-105761785D01*
X195067016Y-105857023D01*
X195019397Y-105904642D01*
X194924159Y-105952261D01*
X194638444Y-105952261D01*
X194543206Y-105904642D01*
X194495587Y-105857023D01*
X150952261Y-128837746D02*
X150476070Y-129171080D01*
X150952261Y-129409175D02*
X149952261Y-129409175D01*
X149952261Y-129028222D01*
X149999880Y-128932984D01*
X150047499Y-128885365D01*
X150142737Y-128837746D01*
X150285594Y-128837746D01*
X150380832Y-128885365D01*
X150428451Y-128932984D01*
X150476070Y-129028222D01*
X150476070Y-129409175D01*
X150285594Y-127980603D02*
X150952261Y-127980603D01*
X149904642Y-128218699D02*
X150618928Y-128456794D01*
X150618928Y-127837746D01*
X174162254Y-103952261D02*
X173828920Y-103476070D01*
X173590825Y-103952261D02*
X173590825Y-102952261D01*
X173971778Y-102952261D01*
X174067016Y-102999880D01*
X174114635Y-103047499D01*
X174162254Y-103142737D01*
X174162254Y-103285594D01*
X174114635Y-103380832D01*
X174067016Y-103428451D01*
X173971778Y-103476070D01*
X173590825Y-103476070D01*
X175067016Y-102952261D02*
X174590825Y-102952261D01*
X174543206Y-103428451D01*
X174590825Y-103380832D01*
X174686063Y-103333213D01*
X174924159Y-103333213D01*
X175019397Y-103380832D01*
X175067016Y-103428451D01*
X175114635Y-103523690D01*
X175114635Y-103761785D01*
X175067016Y-103857023D01*
X175019397Y-103904642D01*
X174924159Y-103952261D01*
X174686063Y-103952261D01*
X174590825Y-103904642D01*
X174543206Y-103857023D01*
X148666667Y-133952381D02*
X148333333Y-133476190D01*
X148095238Y-133952381D02*
X148095238Y-132952381D01*
X148476191Y-132952381D01*
X148571429Y-133000000D01*
X148619048Y-133047619D01*
X148666667Y-133142857D01*
X148666667Y-133285714D01*
X148619048Y-133380952D01*
X148571429Y-133428571D01*
X148476191Y-133476190D01*
X148095238Y-133476190D01*
X149095238Y-133428571D02*
X149428572Y-133428571D01*
X149571429Y-133952381D02*
X149095238Y-133952381D01*
X149095238Y-132952381D01*
X149571429Y-132952381D01*
X150333334Y-133428571D02*
X150000000Y-133428571D01*
X150000000Y-133952381D02*
X150000000Y-132952381D01*
X150476191Y-132952381D01*
X151000000Y-132952381D02*
X151000000Y-133190476D01*
X150761905Y-133095238D02*
X151000000Y-133190476D01*
X151238096Y-133095238D01*
X150857143Y-133380952D02*
X151000000Y-133190476D01*
X151142858Y-133380952D01*
X151761905Y-132952381D02*
X151761905Y-133190476D01*
X151523810Y-133095238D02*
X151761905Y-133190476D01*
X152000001Y-133095238D01*
X151619048Y-133380952D02*
X151761905Y-133190476D01*
X151904763Y-133380952D01*
M02*
