G04 #@! TF.FileFunction,Copper,L2,Bot,Signal*
%FSLAX46Y46*%
G04 Gerber Fmt 4.6, Leading zero omitted, Abs format (unit mm)*
G04 Created by KiCad (PCBNEW 4.0.5+dfsg1-4) date Sat Jul  7 16:24:38 2018*
%MOMM*%
%LPD*%
G01*
G04 APERTURE LIST*
%ADD10C,0.100000*%
%ADD11R,1.900000X2.000000*%
%ADD12C,1.900000*%
%ADD13C,1.998980*%
%ADD14O,1.600000X1.600000*%
%ADD15R,2.000000X2.600000*%
%ADD16O,2.000000X2.600000*%
%ADD17R,2.600000X2.000000*%
%ADD18O,2.600000X2.000000*%
%ADD19C,3.000000*%
%ADD20C,1.500000*%
%ADD21R,2.032000X1.727200*%
%ADD22O,2.032000X1.727200*%
%ADD23C,0.254000*%
G04 APERTURE END LIST*
D10*
D11*
X149000000Y-120000000D03*
D12*
X151540000Y-120000000D03*
D13*
X158000000Y-127000000D03*
X158000000Y-116840000D03*
D14*
X169000000Y-115000000D03*
X169000000Y-117540000D03*
X169000000Y-120080000D03*
X169000000Y-122620000D03*
X176620000Y-122620000D03*
X176620000Y-120080000D03*
X176620000Y-117540000D03*
X176620000Y-115000000D03*
D11*
X190000000Y-120000000D03*
D12*
X187460000Y-120000000D03*
D15*
X164000000Y-135000000D03*
D16*
X161460000Y-135000000D03*
X158920000Y-135000000D03*
D15*
X174000000Y-135000000D03*
D16*
X171460000Y-135000000D03*
X168920000Y-135000000D03*
D15*
X158000000Y-106000000D03*
D16*
X160540000Y-106000000D03*
D17*
X201000000Y-116000000D03*
D18*
X201000000Y-118540000D03*
D19*
X150000000Y-112000000D03*
D20*
X182000000Y-135000000D03*
D21*
X183000000Y-116000000D03*
D22*
X183000000Y-113460000D03*
X183000000Y-110920000D03*
D13*
X199000000Y-131000000D03*
X188840000Y-131000000D03*
X189000000Y-109000000D03*
X199160000Y-109000000D03*
X154000000Y-134000000D03*
X154000000Y-123840000D03*
X169000000Y-107000000D03*
X179160000Y-107000000D03*
D23*
G36*
X205290000Y-140290000D02*
X146710000Y-140290000D01*
X146710000Y-137373305D01*
X148114674Y-137373305D01*
X148401043Y-138066372D01*
X148930839Y-138597093D01*
X149623405Y-138884672D01*
X150373305Y-138885326D01*
X151066372Y-138598957D01*
X151597093Y-138069161D01*
X151884672Y-137376595D01*
X151885326Y-136626695D01*
X151598957Y-135933628D01*
X151069161Y-135402907D01*
X150465304Y-135152163D01*
X153027443Y-135152163D01*
X153126042Y-135418965D01*
X153735582Y-135645401D01*
X154385377Y-135621341D01*
X154873958Y-135418965D01*
X154972557Y-135152163D01*
X154947395Y-135127000D01*
X157285000Y-135127000D01*
X157285000Y-135427000D01*
X157458058Y-136043020D01*
X157853683Y-136545922D01*
X158411645Y-136859144D01*
X158539566Y-136890124D01*
X158793000Y-136770777D01*
X158793000Y-135127000D01*
X157285000Y-135127000D01*
X154947395Y-135127000D01*
X154000000Y-134179605D01*
X153027443Y-135152163D01*
X150465304Y-135152163D01*
X150376595Y-135115328D01*
X149626695Y-135114674D01*
X148933628Y-135401043D01*
X148402907Y-135930839D01*
X148115328Y-136623405D01*
X148114674Y-137373305D01*
X146710000Y-137373305D01*
X146710000Y-133735582D01*
X152354599Y-133735582D01*
X152378659Y-134385377D01*
X152581035Y-134873958D01*
X152847837Y-134972557D01*
X153820395Y-134000000D01*
X154179605Y-134000000D01*
X155152163Y-134972557D01*
X155418965Y-134873958D01*
X155530766Y-134573000D01*
X157285000Y-134573000D01*
X157285000Y-134873000D01*
X158793000Y-134873000D01*
X158793000Y-133229223D01*
X159047000Y-133229223D01*
X159047000Y-134873000D01*
X159067000Y-134873000D01*
X159067000Y-135127000D01*
X159047000Y-135127000D01*
X159047000Y-136770777D01*
X159300434Y-136890124D01*
X159428355Y-136859144D01*
X159986317Y-136545922D01*
X160176781Y-136303812D01*
X160303880Y-136494029D01*
X160834313Y-136848452D01*
X161460000Y-136972909D01*
X162085687Y-136848452D01*
X162444192Y-136608907D01*
X162535910Y-136751441D01*
X162748110Y-136896431D01*
X163000000Y-136947440D01*
X165000000Y-136947440D01*
X165235317Y-136903162D01*
X165451441Y-136764090D01*
X165596431Y-136551890D01*
X165647440Y-136300000D01*
X165647440Y-135127000D01*
X167285000Y-135127000D01*
X167285000Y-135427000D01*
X167458058Y-136043020D01*
X167853683Y-136545922D01*
X168411645Y-136859144D01*
X168539566Y-136890124D01*
X168793000Y-136770777D01*
X168793000Y-135127000D01*
X167285000Y-135127000D01*
X165647440Y-135127000D01*
X165647440Y-134573000D01*
X167285000Y-134573000D01*
X167285000Y-134873000D01*
X168793000Y-134873000D01*
X168793000Y-133229223D01*
X169047000Y-133229223D01*
X169047000Y-134873000D01*
X169067000Y-134873000D01*
X169067000Y-135127000D01*
X169047000Y-135127000D01*
X169047000Y-136770777D01*
X169300434Y-136890124D01*
X169428355Y-136859144D01*
X169986317Y-136545922D01*
X170176781Y-136303812D01*
X170303880Y-136494029D01*
X170834313Y-136848452D01*
X171460000Y-136972909D01*
X172085687Y-136848452D01*
X172444192Y-136608907D01*
X172535910Y-136751441D01*
X172748110Y-136896431D01*
X173000000Y-136947440D01*
X175000000Y-136947440D01*
X175235317Y-136903162D01*
X175451441Y-136764090D01*
X175596431Y-136551890D01*
X175647440Y-136300000D01*
X175647440Y-135274285D01*
X180614760Y-135274285D01*
X180825169Y-135783515D01*
X181214436Y-136173461D01*
X181723298Y-136384759D01*
X182274285Y-136385240D01*
X182783515Y-136174831D01*
X183173461Y-135785564D01*
X183384759Y-135276702D01*
X183385240Y-134725715D01*
X183174831Y-134216485D01*
X182785564Y-133826539D01*
X182276702Y-133615241D01*
X181725715Y-133614760D01*
X181216485Y-133825169D01*
X180826539Y-134214436D01*
X180615241Y-134723298D01*
X180614760Y-135274285D01*
X175647440Y-135274285D01*
X175647440Y-133700000D01*
X175603162Y-133464683D01*
X175464090Y-133248559D01*
X175251890Y-133103569D01*
X175000000Y-133052560D01*
X173000000Y-133052560D01*
X172764683Y-133096838D01*
X172548559Y-133235910D01*
X172443049Y-133390329D01*
X172085687Y-133151548D01*
X171460000Y-133027091D01*
X170834313Y-133151548D01*
X170303880Y-133505971D01*
X170176781Y-133696188D01*
X169986317Y-133454078D01*
X169428355Y-133140856D01*
X169300434Y-133109876D01*
X169047000Y-133229223D01*
X168793000Y-133229223D01*
X168539566Y-133109876D01*
X168411645Y-133140856D01*
X167853683Y-133454078D01*
X167458058Y-133956980D01*
X167285000Y-134573000D01*
X165647440Y-134573000D01*
X165647440Y-133700000D01*
X165603162Y-133464683D01*
X165464090Y-133248559D01*
X165251890Y-133103569D01*
X165000000Y-133052560D01*
X163000000Y-133052560D01*
X162764683Y-133096838D01*
X162548559Y-133235910D01*
X162443049Y-133390329D01*
X162085687Y-133151548D01*
X161460000Y-133027091D01*
X160834313Y-133151548D01*
X160303880Y-133505971D01*
X160176781Y-133696188D01*
X159986317Y-133454078D01*
X159428355Y-133140856D01*
X159300434Y-133109876D01*
X159047000Y-133229223D01*
X158793000Y-133229223D01*
X158539566Y-133109876D01*
X158411645Y-133140856D01*
X157853683Y-133454078D01*
X157458058Y-133956980D01*
X157285000Y-134573000D01*
X155530766Y-134573000D01*
X155645401Y-134264418D01*
X155621341Y-133614623D01*
X155418965Y-133126042D01*
X155152163Y-133027443D01*
X154179605Y-134000000D01*
X153820395Y-134000000D01*
X152847837Y-133027443D01*
X152581035Y-133126042D01*
X152354599Y-133735582D01*
X146710000Y-133735582D01*
X146710000Y-132847837D01*
X153027443Y-132847837D01*
X154000000Y-133820395D01*
X154972557Y-132847837D01*
X154873958Y-132581035D01*
X154264418Y-132354599D01*
X153614623Y-132378659D01*
X153126042Y-132581035D01*
X153027443Y-132847837D01*
X146710000Y-132847837D01*
X146710000Y-131323694D01*
X187205226Y-131323694D01*
X187453538Y-131924655D01*
X187912927Y-132384846D01*
X188513453Y-132634206D01*
X189163694Y-132634774D01*
X189764655Y-132386462D01*
X189999363Y-132152163D01*
X198027443Y-132152163D01*
X198126042Y-132418965D01*
X198735582Y-132645401D01*
X199385377Y-132621341D01*
X199873958Y-132418965D01*
X199972557Y-132152163D01*
X199000000Y-131179605D01*
X198027443Y-132152163D01*
X189999363Y-132152163D01*
X190224846Y-131927073D01*
X190474206Y-131326547D01*
X190474722Y-130735582D01*
X197354599Y-130735582D01*
X197378659Y-131385377D01*
X197581035Y-131873958D01*
X197847837Y-131972557D01*
X198820395Y-131000000D01*
X199179605Y-131000000D01*
X200152163Y-131972557D01*
X200418965Y-131873958D01*
X200645401Y-131264418D01*
X200621341Y-130614623D01*
X200418965Y-130126042D01*
X200152163Y-130027443D01*
X199179605Y-131000000D01*
X198820395Y-131000000D01*
X197847837Y-130027443D01*
X197581035Y-130126042D01*
X197354599Y-130735582D01*
X190474722Y-130735582D01*
X190474774Y-130676306D01*
X190226462Y-130075345D01*
X189999351Y-129847837D01*
X198027443Y-129847837D01*
X199000000Y-130820395D01*
X199972557Y-129847837D01*
X199873958Y-129581035D01*
X199264418Y-129354599D01*
X198614623Y-129378659D01*
X198126042Y-129581035D01*
X198027443Y-129847837D01*
X189999351Y-129847837D01*
X189767073Y-129615154D01*
X189166547Y-129365794D01*
X188516306Y-129365226D01*
X187915345Y-129613538D01*
X187455154Y-130072927D01*
X187205794Y-130673453D01*
X187205226Y-131323694D01*
X146710000Y-131323694D01*
X146710000Y-127323694D01*
X156365226Y-127323694D01*
X156613538Y-127924655D01*
X157072927Y-128384846D01*
X157673453Y-128634206D01*
X158323694Y-128634774D01*
X158924655Y-128386462D01*
X159384846Y-127927073D01*
X159634206Y-127326547D01*
X159634774Y-126676306D01*
X159386462Y-126075345D01*
X158927073Y-125615154D01*
X158326547Y-125365794D01*
X157676306Y-125365226D01*
X157075345Y-125613538D01*
X156615154Y-126072927D01*
X156365794Y-126673453D01*
X156365226Y-127323694D01*
X146710000Y-127323694D01*
X146710000Y-124163694D01*
X152365226Y-124163694D01*
X152613538Y-124764655D01*
X153072927Y-125224846D01*
X153673453Y-125474206D01*
X154323694Y-125474774D01*
X154924655Y-125226462D01*
X155384846Y-124767073D01*
X155634206Y-124166547D01*
X155634774Y-123516306D01*
X155408648Y-122969039D01*
X167608096Y-122969039D01*
X167768959Y-123357423D01*
X168144866Y-123772389D01*
X168650959Y-124011914D01*
X168873000Y-123890629D01*
X168873000Y-122747000D01*
X169127000Y-122747000D01*
X169127000Y-123890629D01*
X169349041Y-124011914D01*
X169855134Y-123772389D01*
X170231041Y-123357423D01*
X170391904Y-122969039D01*
X170269915Y-122747000D01*
X169127000Y-122747000D01*
X168873000Y-122747000D01*
X167730085Y-122747000D01*
X167608096Y-122969039D01*
X155408648Y-122969039D01*
X155386462Y-122915345D01*
X154927073Y-122455154D01*
X154326547Y-122205794D01*
X153676306Y-122205226D01*
X153075345Y-122453538D01*
X152615154Y-122912927D01*
X152365794Y-123513453D01*
X152365226Y-124163694D01*
X146710000Y-124163694D01*
X146710000Y-119000000D01*
X147402560Y-119000000D01*
X147402560Y-121000000D01*
X147446838Y-121235317D01*
X147585910Y-121451441D01*
X147798110Y-121596431D01*
X148050000Y-121647440D01*
X149950000Y-121647440D01*
X150185317Y-121603162D01*
X150401441Y-121464090D01*
X150546431Y-121251890D01*
X150547055Y-121248808D01*
X150640997Y-121342914D01*
X151223341Y-121584724D01*
X151853893Y-121585275D01*
X152436657Y-121344481D01*
X152882914Y-120899003D01*
X153124724Y-120316659D01*
X153125275Y-119686107D01*
X152884481Y-119103343D01*
X152439003Y-118657086D01*
X151856659Y-118415276D01*
X151226107Y-118414725D01*
X150643343Y-118655519D01*
X150545663Y-118753029D01*
X150414090Y-118548559D01*
X150201890Y-118403569D01*
X149950000Y-118352560D01*
X148050000Y-118352560D01*
X147814683Y-118396838D01*
X147598559Y-118535910D01*
X147453569Y-118748110D01*
X147402560Y-119000000D01*
X146710000Y-119000000D01*
X146710000Y-117163694D01*
X156365226Y-117163694D01*
X156613538Y-117764655D01*
X157072927Y-118224846D01*
X157673453Y-118474206D01*
X158323694Y-118474774D01*
X158924655Y-118226462D01*
X159384846Y-117767073D01*
X159634206Y-117166547D01*
X159634774Y-116516306D01*
X159386462Y-115915345D01*
X158927073Y-115455154D01*
X158326547Y-115205794D01*
X157676306Y-115205226D01*
X157075345Y-115453538D01*
X156615154Y-115912927D01*
X156365794Y-116513453D01*
X156365226Y-117163694D01*
X146710000Y-117163694D01*
X146710000Y-115000000D01*
X167536887Y-115000000D01*
X167646120Y-115549151D01*
X167957189Y-116014698D01*
X168339275Y-116270000D01*
X167957189Y-116525302D01*
X167646120Y-116990849D01*
X167536887Y-117540000D01*
X167646120Y-118089151D01*
X167957189Y-118554698D01*
X168339275Y-118810000D01*
X167957189Y-119065302D01*
X167646120Y-119530849D01*
X167536887Y-120080000D01*
X167646120Y-120629151D01*
X167957189Y-121094698D01*
X168361703Y-121364986D01*
X168144866Y-121467611D01*
X167768959Y-121882577D01*
X167608096Y-122270961D01*
X167730085Y-122493000D01*
X168873000Y-122493000D01*
X168873000Y-122473000D01*
X169127000Y-122473000D01*
X169127000Y-122493000D01*
X170269915Y-122493000D01*
X170391904Y-122270961D01*
X170231041Y-121882577D01*
X169855134Y-121467611D01*
X169638297Y-121364986D01*
X170042811Y-121094698D01*
X170353880Y-120629151D01*
X170463113Y-120080000D01*
X170353880Y-119530849D01*
X170042811Y-119065302D01*
X169660725Y-118810000D01*
X170042811Y-118554698D01*
X170353880Y-118089151D01*
X170463113Y-117540000D01*
X170353880Y-116990849D01*
X170042811Y-116525302D01*
X169660725Y-116270000D01*
X170042811Y-116014698D01*
X170353880Y-115549151D01*
X170463113Y-115000000D01*
X175156887Y-115000000D01*
X175266120Y-115549151D01*
X175577189Y-116014698D01*
X175959275Y-116270000D01*
X175577189Y-116525302D01*
X175266120Y-116990849D01*
X175156887Y-117540000D01*
X175266120Y-118089151D01*
X175577189Y-118554698D01*
X175959275Y-118810000D01*
X175577189Y-119065302D01*
X175266120Y-119530849D01*
X175156887Y-120080000D01*
X175266120Y-120629151D01*
X175577189Y-121094698D01*
X175959275Y-121350000D01*
X175577189Y-121605302D01*
X175266120Y-122070849D01*
X175156887Y-122620000D01*
X175266120Y-123169151D01*
X175577189Y-123634698D01*
X176042736Y-123945767D01*
X176591887Y-124055000D01*
X176648113Y-124055000D01*
X177197264Y-123945767D01*
X177662811Y-123634698D01*
X177973880Y-123169151D01*
X178083113Y-122620000D01*
X177973880Y-122070849D01*
X177662811Y-121605302D01*
X177280725Y-121350000D01*
X177662811Y-121094698D01*
X177973880Y-120629151D01*
X178036588Y-120313893D01*
X185874725Y-120313893D01*
X186115519Y-120896657D01*
X186560997Y-121342914D01*
X187143341Y-121584724D01*
X187773893Y-121585275D01*
X188356657Y-121344481D01*
X188454337Y-121246971D01*
X188585910Y-121451441D01*
X188798110Y-121596431D01*
X189050000Y-121647440D01*
X190950000Y-121647440D01*
X191185317Y-121603162D01*
X191401441Y-121464090D01*
X191546431Y-121251890D01*
X191597440Y-121000000D01*
X191597440Y-119000000D01*
X191553162Y-118764683D01*
X191414090Y-118548559D01*
X191401564Y-118540000D01*
X199027091Y-118540000D01*
X199151548Y-119165687D01*
X199505971Y-119696120D01*
X200036404Y-120050543D01*
X200662091Y-120175000D01*
X201337909Y-120175000D01*
X201963596Y-120050543D01*
X202494029Y-119696120D01*
X202848452Y-119165687D01*
X202972909Y-118540000D01*
X202848452Y-117914313D01*
X202608907Y-117555808D01*
X202751441Y-117464090D01*
X202896431Y-117251890D01*
X202947440Y-117000000D01*
X202947440Y-115000000D01*
X202903162Y-114764683D01*
X202764090Y-114548559D01*
X202551890Y-114403569D01*
X202300000Y-114352560D01*
X199700000Y-114352560D01*
X199464683Y-114396838D01*
X199248559Y-114535910D01*
X199103569Y-114748110D01*
X199052560Y-115000000D01*
X199052560Y-117000000D01*
X199096838Y-117235317D01*
X199235910Y-117451441D01*
X199390329Y-117556951D01*
X199151548Y-117914313D01*
X199027091Y-118540000D01*
X191401564Y-118540000D01*
X191201890Y-118403569D01*
X190950000Y-118352560D01*
X189050000Y-118352560D01*
X188814683Y-118396838D01*
X188598559Y-118535910D01*
X188453569Y-118748110D01*
X188452945Y-118751192D01*
X188359003Y-118657086D01*
X187776659Y-118415276D01*
X187146107Y-118414725D01*
X186563343Y-118655519D01*
X186117086Y-119100997D01*
X185875276Y-119683341D01*
X185874725Y-120313893D01*
X178036588Y-120313893D01*
X178083113Y-120080000D01*
X177973880Y-119530849D01*
X177662811Y-119065302D01*
X177280725Y-118810000D01*
X177662811Y-118554698D01*
X177973880Y-118089151D01*
X178083113Y-117540000D01*
X177973880Y-116990849D01*
X177662811Y-116525302D01*
X177280725Y-116270000D01*
X177662811Y-116014698D01*
X177973880Y-115549151D01*
X178055981Y-115136400D01*
X181336560Y-115136400D01*
X181336560Y-116863600D01*
X181380838Y-117098917D01*
X181519910Y-117315041D01*
X181732110Y-117460031D01*
X181984000Y-117511040D01*
X184016000Y-117511040D01*
X184251317Y-117466762D01*
X184467441Y-117327690D01*
X184612431Y-117115490D01*
X184663440Y-116863600D01*
X184663440Y-115136400D01*
X184619162Y-114901083D01*
X184480090Y-114684959D01*
X184267890Y-114539969D01*
X184173073Y-114520768D01*
X184350732Y-114362036D01*
X184604709Y-113834791D01*
X184607358Y-113819026D01*
X184486217Y-113587000D01*
X183127000Y-113587000D01*
X183127000Y-113607000D01*
X182873000Y-113607000D01*
X182873000Y-113587000D01*
X181513783Y-113587000D01*
X181392642Y-113819026D01*
X181395291Y-113834791D01*
X181649268Y-114362036D01*
X181824845Y-114518907D01*
X181748683Y-114533238D01*
X181532559Y-114672310D01*
X181387569Y-114884510D01*
X181336560Y-115136400D01*
X178055981Y-115136400D01*
X178083113Y-115000000D01*
X177973880Y-114450849D01*
X177662811Y-113985302D01*
X177197264Y-113674233D01*
X176648113Y-113565000D01*
X176591887Y-113565000D01*
X176042736Y-113674233D01*
X175577189Y-113985302D01*
X175266120Y-114450849D01*
X175156887Y-115000000D01*
X170463113Y-115000000D01*
X170353880Y-114450849D01*
X170042811Y-113985302D01*
X169577264Y-113674233D01*
X169028113Y-113565000D01*
X168971887Y-113565000D01*
X168422736Y-113674233D01*
X167957189Y-113985302D01*
X167646120Y-114450849D01*
X167536887Y-115000000D01*
X146710000Y-115000000D01*
X146710000Y-113513970D01*
X148665635Y-113513970D01*
X148825418Y-113832739D01*
X149616187Y-114142723D01*
X150465387Y-114126497D01*
X151174582Y-113832739D01*
X151334365Y-113513970D01*
X150000000Y-112179605D01*
X148665635Y-113513970D01*
X146710000Y-113513970D01*
X146710000Y-111616187D01*
X147857277Y-111616187D01*
X147873503Y-112465387D01*
X148167261Y-113174582D01*
X148486030Y-113334365D01*
X149820395Y-112000000D01*
X150179605Y-112000000D01*
X151513970Y-113334365D01*
X151832739Y-113174582D01*
X152142723Y-112383813D01*
X152126497Y-111534613D01*
X151871917Y-110920000D01*
X181316655Y-110920000D01*
X181430729Y-111493489D01*
X181755585Y-111979670D01*
X182065069Y-112186461D01*
X181649268Y-112557964D01*
X181395291Y-113085209D01*
X181392642Y-113100974D01*
X181513783Y-113333000D01*
X182873000Y-113333000D01*
X182873000Y-113313000D01*
X183127000Y-113313000D01*
X183127000Y-113333000D01*
X184486217Y-113333000D01*
X184607358Y-113100974D01*
X184604709Y-113085209D01*
X184350732Y-112557964D01*
X183934931Y-112186461D01*
X184244415Y-111979670D01*
X184569271Y-111493489D01*
X184683345Y-110920000D01*
X184569271Y-110346511D01*
X184439412Y-110152163D01*
X188027443Y-110152163D01*
X188126042Y-110418965D01*
X188735582Y-110645401D01*
X189385377Y-110621341D01*
X189873958Y-110418965D01*
X189972557Y-110152163D01*
X189000000Y-109179605D01*
X188027443Y-110152163D01*
X184439412Y-110152163D01*
X184244415Y-109860330D01*
X183758234Y-109535474D01*
X183184745Y-109421400D01*
X182815255Y-109421400D01*
X182241766Y-109535474D01*
X181755585Y-109860330D01*
X181430729Y-110346511D01*
X181316655Y-110920000D01*
X151871917Y-110920000D01*
X151832739Y-110825418D01*
X151513970Y-110665635D01*
X150179605Y-112000000D01*
X149820395Y-112000000D01*
X148486030Y-110665635D01*
X148167261Y-110825418D01*
X147857277Y-111616187D01*
X146710000Y-111616187D01*
X146710000Y-110486030D01*
X148665635Y-110486030D01*
X150000000Y-111820395D01*
X151334365Y-110486030D01*
X151174582Y-110167261D01*
X150383813Y-109857277D01*
X149534613Y-109873503D01*
X148825418Y-110167261D01*
X148665635Y-110486030D01*
X146710000Y-110486030D01*
X146710000Y-108735582D01*
X187354599Y-108735582D01*
X187378659Y-109385377D01*
X187581035Y-109873958D01*
X187847837Y-109972557D01*
X188820395Y-109000000D01*
X189179605Y-109000000D01*
X190152163Y-109972557D01*
X190418965Y-109873958D01*
X190623380Y-109323694D01*
X197525226Y-109323694D01*
X197773538Y-109924655D01*
X198232927Y-110384846D01*
X198833453Y-110634206D01*
X199483694Y-110634774D01*
X200084655Y-110386462D01*
X200544846Y-109927073D01*
X200794206Y-109326547D01*
X200794774Y-108676306D01*
X200546462Y-108075345D01*
X200087073Y-107615154D01*
X199486547Y-107365794D01*
X198836306Y-107365226D01*
X198235345Y-107613538D01*
X197775154Y-108072927D01*
X197525794Y-108673453D01*
X197525226Y-109323694D01*
X190623380Y-109323694D01*
X190645401Y-109264418D01*
X190621341Y-108614623D01*
X190418965Y-108126042D01*
X190152163Y-108027443D01*
X189179605Y-109000000D01*
X188820395Y-109000000D01*
X187847837Y-108027443D01*
X187581035Y-108126042D01*
X187354599Y-108735582D01*
X146710000Y-108735582D01*
X146710000Y-105373305D01*
X148114674Y-105373305D01*
X148401043Y-106066372D01*
X148930839Y-106597093D01*
X149623405Y-106884672D01*
X150373305Y-106885326D01*
X151066372Y-106598957D01*
X151380125Y-106285750D01*
X156365000Y-106285750D01*
X156365000Y-107426310D01*
X156461673Y-107659699D01*
X156640302Y-107838327D01*
X156873691Y-107935000D01*
X157714250Y-107935000D01*
X157873000Y-107776250D01*
X157873000Y-106127000D01*
X156523750Y-106127000D01*
X156365000Y-106285750D01*
X151380125Y-106285750D01*
X151597093Y-106069161D01*
X151884672Y-105376595D01*
X151885326Y-104626695D01*
X151863425Y-104573690D01*
X156365000Y-104573690D01*
X156365000Y-105714250D01*
X156523750Y-105873000D01*
X157873000Y-105873000D01*
X157873000Y-104223750D01*
X158127000Y-104223750D01*
X158127000Y-105873000D01*
X158147000Y-105873000D01*
X158147000Y-106127000D01*
X158127000Y-106127000D01*
X158127000Y-107776250D01*
X158285750Y-107935000D01*
X159126309Y-107935000D01*
X159359698Y-107838327D01*
X159538327Y-107659699D01*
X159558594Y-107610769D01*
X159914313Y-107848452D01*
X160540000Y-107972909D01*
X161165687Y-107848452D01*
X161696120Y-107494029D01*
X161809933Y-107323694D01*
X167365226Y-107323694D01*
X167613538Y-107924655D01*
X168072927Y-108384846D01*
X168673453Y-108634206D01*
X169323694Y-108634774D01*
X169924655Y-108386462D01*
X170384846Y-107927073D01*
X170634206Y-107326547D01*
X170634208Y-107323694D01*
X177525226Y-107323694D01*
X177773538Y-107924655D01*
X178232927Y-108384846D01*
X178833453Y-108634206D01*
X179483694Y-108634774D01*
X180084655Y-108386462D01*
X180544846Y-107927073D01*
X180577747Y-107847837D01*
X188027443Y-107847837D01*
X189000000Y-108820395D01*
X189972557Y-107847837D01*
X189873958Y-107581035D01*
X189264418Y-107354599D01*
X188614623Y-107378659D01*
X188126042Y-107581035D01*
X188027443Y-107847837D01*
X180577747Y-107847837D01*
X180794206Y-107326547D01*
X180794774Y-106676306D01*
X180546462Y-106075345D01*
X180087073Y-105615154D01*
X179504636Y-105373305D01*
X200114674Y-105373305D01*
X200401043Y-106066372D01*
X200930839Y-106597093D01*
X201623405Y-106884672D01*
X202373305Y-106885326D01*
X203066372Y-106598957D01*
X203597093Y-106069161D01*
X203884672Y-105376595D01*
X203885326Y-104626695D01*
X203598957Y-103933628D01*
X203069161Y-103402907D01*
X202376595Y-103115328D01*
X201626695Y-103114674D01*
X200933628Y-103401043D01*
X200402907Y-103930839D01*
X200115328Y-104623405D01*
X200114674Y-105373305D01*
X179504636Y-105373305D01*
X179486547Y-105365794D01*
X178836306Y-105365226D01*
X178235345Y-105613538D01*
X177775154Y-106072927D01*
X177525794Y-106673453D01*
X177525226Y-107323694D01*
X170634208Y-107323694D01*
X170634774Y-106676306D01*
X170386462Y-106075345D01*
X169927073Y-105615154D01*
X169326547Y-105365794D01*
X168676306Y-105365226D01*
X168075345Y-105613538D01*
X167615154Y-106072927D01*
X167365794Y-106673453D01*
X167365226Y-107323694D01*
X161809933Y-107323694D01*
X162050543Y-106963596D01*
X162175000Y-106337909D01*
X162175000Y-105662091D01*
X162050543Y-105036404D01*
X161696120Y-104505971D01*
X161165687Y-104151548D01*
X160540000Y-104027091D01*
X159914313Y-104151548D01*
X159558594Y-104389231D01*
X159538327Y-104340301D01*
X159359698Y-104161673D01*
X159126309Y-104065000D01*
X158285750Y-104065000D01*
X158127000Y-104223750D01*
X157873000Y-104223750D01*
X157714250Y-104065000D01*
X156873691Y-104065000D01*
X156640302Y-104161673D01*
X156461673Y-104340301D01*
X156365000Y-104573690D01*
X151863425Y-104573690D01*
X151598957Y-103933628D01*
X151069161Y-103402907D01*
X150376595Y-103115328D01*
X149626695Y-103114674D01*
X148933628Y-103401043D01*
X148402907Y-103930839D01*
X148115328Y-104623405D01*
X148114674Y-105373305D01*
X146710000Y-105373305D01*
X146710000Y-101710000D01*
X205290000Y-101710000D01*
X205290000Y-140290000D01*
X205290000Y-140290000D01*
G37*
X205290000Y-140290000D02*
X146710000Y-140290000D01*
X146710000Y-137373305D01*
X148114674Y-137373305D01*
X148401043Y-138066372D01*
X148930839Y-138597093D01*
X149623405Y-138884672D01*
X150373305Y-138885326D01*
X151066372Y-138598957D01*
X151597093Y-138069161D01*
X151884672Y-137376595D01*
X151885326Y-136626695D01*
X151598957Y-135933628D01*
X151069161Y-135402907D01*
X150465304Y-135152163D01*
X153027443Y-135152163D01*
X153126042Y-135418965D01*
X153735582Y-135645401D01*
X154385377Y-135621341D01*
X154873958Y-135418965D01*
X154972557Y-135152163D01*
X154947395Y-135127000D01*
X157285000Y-135127000D01*
X157285000Y-135427000D01*
X157458058Y-136043020D01*
X157853683Y-136545922D01*
X158411645Y-136859144D01*
X158539566Y-136890124D01*
X158793000Y-136770777D01*
X158793000Y-135127000D01*
X157285000Y-135127000D01*
X154947395Y-135127000D01*
X154000000Y-134179605D01*
X153027443Y-135152163D01*
X150465304Y-135152163D01*
X150376595Y-135115328D01*
X149626695Y-135114674D01*
X148933628Y-135401043D01*
X148402907Y-135930839D01*
X148115328Y-136623405D01*
X148114674Y-137373305D01*
X146710000Y-137373305D01*
X146710000Y-133735582D01*
X152354599Y-133735582D01*
X152378659Y-134385377D01*
X152581035Y-134873958D01*
X152847837Y-134972557D01*
X153820395Y-134000000D01*
X154179605Y-134000000D01*
X155152163Y-134972557D01*
X155418965Y-134873958D01*
X155530766Y-134573000D01*
X157285000Y-134573000D01*
X157285000Y-134873000D01*
X158793000Y-134873000D01*
X158793000Y-133229223D01*
X159047000Y-133229223D01*
X159047000Y-134873000D01*
X159067000Y-134873000D01*
X159067000Y-135127000D01*
X159047000Y-135127000D01*
X159047000Y-136770777D01*
X159300434Y-136890124D01*
X159428355Y-136859144D01*
X159986317Y-136545922D01*
X160176781Y-136303812D01*
X160303880Y-136494029D01*
X160834313Y-136848452D01*
X161460000Y-136972909D01*
X162085687Y-136848452D01*
X162444192Y-136608907D01*
X162535910Y-136751441D01*
X162748110Y-136896431D01*
X163000000Y-136947440D01*
X165000000Y-136947440D01*
X165235317Y-136903162D01*
X165451441Y-136764090D01*
X165596431Y-136551890D01*
X165647440Y-136300000D01*
X165647440Y-135127000D01*
X167285000Y-135127000D01*
X167285000Y-135427000D01*
X167458058Y-136043020D01*
X167853683Y-136545922D01*
X168411645Y-136859144D01*
X168539566Y-136890124D01*
X168793000Y-136770777D01*
X168793000Y-135127000D01*
X167285000Y-135127000D01*
X165647440Y-135127000D01*
X165647440Y-134573000D01*
X167285000Y-134573000D01*
X167285000Y-134873000D01*
X168793000Y-134873000D01*
X168793000Y-133229223D01*
X169047000Y-133229223D01*
X169047000Y-134873000D01*
X169067000Y-134873000D01*
X169067000Y-135127000D01*
X169047000Y-135127000D01*
X169047000Y-136770777D01*
X169300434Y-136890124D01*
X169428355Y-136859144D01*
X169986317Y-136545922D01*
X170176781Y-136303812D01*
X170303880Y-136494029D01*
X170834313Y-136848452D01*
X171460000Y-136972909D01*
X172085687Y-136848452D01*
X172444192Y-136608907D01*
X172535910Y-136751441D01*
X172748110Y-136896431D01*
X173000000Y-136947440D01*
X175000000Y-136947440D01*
X175235317Y-136903162D01*
X175451441Y-136764090D01*
X175596431Y-136551890D01*
X175647440Y-136300000D01*
X175647440Y-135274285D01*
X180614760Y-135274285D01*
X180825169Y-135783515D01*
X181214436Y-136173461D01*
X181723298Y-136384759D01*
X182274285Y-136385240D01*
X182783515Y-136174831D01*
X183173461Y-135785564D01*
X183384759Y-135276702D01*
X183385240Y-134725715D01*
X183174831Y-134216485D01*
X182785564Y-133826539D01*
X182276702Y-133615241D01*
X181725715Y-133614760D01*
X181216485Y-133825169D01*
X180826539Y-134214436D01*
X180615241Y-134723298D01*
X180614760Y-135274285D01*
X175647440Y-135274285D01*
X175647440Y-133700000D01*
X175603162Y-133464683D01*
X175464090Y-133248559D01*
X175251890Y-133103569D01*
X175000000Y-133052560D01*
X173000000Y-133052560D01*
X172764683Y-133096838D01*
X172548559Y-133235910D01*
X172443049Y-133390329D01*
X172085687Y-133151548D01*
X171460000Y-133027091D01*
X170834313Y-133151548D01*
X170303880Y-133505971D01*
X170176781Y-133696188D01*
X169986317Y-133454078D01*
X169428355Y-133140856D01*
X169300434Y-133109876D01*
X169047000Y-133229223D01*
X168793000Y-133229223D01*
X168539566Y-133109876D01*
X168411645Y-133140856D01*
X167853683Y-133454078D01*
X167458058Y-133956980D01*
X167285000Y-134573000D01*
X165647440Y-134573000D01*
X165647440Y-133700000D01*
X165603162Y-133464683D01*
X165464090Y-133248559D01*
X165251890Y-133103569D01*
X165000000Y-133052560D01*
X163000000Y-133052560D01*
X162764683Y-133096838D01*
X162548559Y-133235910D01*
X162443049Y-133390329D01*
X162085687Y-133151548D01*
X161460000Y-133027091D01*
X160834313Y-133151548D01*
X160303880Y-133505971D01*
X160176781Y-133696188D01*
X159986317Y-133454078D01*
X159428355Y-133140856D01*
X159300434Y-133109876D01*
X159047000Y-133229223D01*
X158793000Y-133229223D01*
X158539566Y-133109876D01*
X158411645Y-133140856D01*
X157853683Y-133454078D01*
X157458058Y-133956980D01*
X157285000Y-134573000D01*
X155530766Y-134573000D01*
X155645401Y-134264418D01*
X155621341Y-133614623D01*
X155418965Y-133126042D01*
X155152163Y-133027443D01*
X154179605Y-134000000D01*
X153820395Y-134000000D01*
X152847837Y-133027443D01*
X152581035Y-133126042D01*
X152354599Y-133735582D01*
X146710000Y-133735582D01*
X146710000Y-132847837D01*
X153027443Y-132847837D01*
X154000000Y-133820395D01*
X154972557Y-132847837D01*
X154873958Y-132581035D01*
X154264418Y-132354599D01*
X153614623Y-132378659D01*
X153126042Y-132581035D01*
X153027443Y-132847837D01*
X146710000Y-132847837D01*
X146710000Y-131323694D01*
X187205226Y-131323694D01*
X187453538Y-131924655D01*
X187912927Y-132384846D01*
X188513453Y-132634206D01*
X189163694Y-132634774D01*
X189764655Y-132386462D01*
X189999363Y-132152163D01*
X198027443Y-132152163D01*
X198126042Y-132418965D01*
X198735582Y-132645401D01*
X199385377Y-132621341D01*
X199873958Y-132418965D01*
X199972557Y-132152163D01*
X199000000Y-131179605D01*
X198027443Y-132152163D01*
X189999363Y-132152163D01*
X190224846Y-131927073D01*
X190474206Y-131326547D01*
X190474722Y-130735582D01*
X197354599Y-130735582D01*
X197378659Y-131385377D01*
X197581035Y-131873958D01*
X197847837Y-131972557D01*
X198820395Y-131000000D01*
X199179605Y-131000000D01*
X200152163Y-131972557D01*
X200418965Y-131873958D01*
X200645401Y-131264418D01*
X200621341Y-130614623D01*
X200418965Y-130126042D01*
X200152163Y-130027443D01*
X199179605Y-131000000D01*
X198820395Y-131000000D01*
X197847837Y-130027443D01*
X197581035Y-130126042D01*
X197354599Y-130735582D01*
X190474722Y-130735582D01*
X190474774Y-130676306D01*
X190226462Y-130075345D01*
X189999351Y-129847837D01*
X198027443Y-129847837D01*
X199000000Y-130820395D01*
X199972557Y-129847837D01*
X199873958Y-129581035D01*
X199264418Y-129354599D01*
X198614623Y-129378659D01*
X198126042Y-129581035D01*
X198027443Y-129847837D01*
X189999351Y-129847837D01*
X189767073Y-129615154D01*
X189166547Y-129365794D01*
X188516306Y-129365226D01*
X187915345Y-129613538D01*
X187455154Y-130072927D01*
X187205794Y-130673453D01*
X187205226Y-131323694D01*
X146710000Y-131323694D01*
X146710000Y-127323694D01*
X156365226Y-127323694D01*
X156613538Y-127924655D01*
X157072927Y-128384846D01*
X157673453Y-128634206D01*
X158323694Y-128634774D01*
X158924655Y-128386462D01*
X159384846Y-127927073D01*
X159634206Y-127326547D01*
X159634774Y-126676306D01*
X159386462Y-126075345D01*
X158927073Y-125615154D01*
X158326547Y-125365794D01*
X157676306Y-125365226D01*
X157075345Y-125613538D01*
X156615154Y-126072927D01*
X156365794Y-126673453D01*
X156365226Y-127323694D01*
X146710000Y-127323694D01*
X146710000Y-124163694D01*
X152365226Y-124163694D01*
X152613538Y-124764655D01*
X153072927Y-125224846D01*
X153673453Y-125474206D01*
X154323694Y-125474774D01*
X154924655Y-125226462D01*
X155384846Y-124767073D01*
X155634206Y-124166547D01*
X155634774Y-123516306D01*
X155408648Y-122969039D01*
X167608096Y-122969039D01*
X167768959Y-123357423D01*
X168144866Y-123772389D01*
X168650959Y-124011914D01*
X168873000Y-123890629D01*
X168873000Y-122747000D01*
X169127000Y-122747000D01*
X169127000Y-123890629D01*
X169349041Y-124011914D01*
X169855134Y-123772389D01*
X170231041Y-123357423D01*
X170391904Y-122969039D01*
X170269915Y-122747000D01*
X169127000Y-122747000D01*
X168873000Y-122747000D01*
X167730085Y-122747000D01*
X167608096Y-122969039D01*
X155408648Y-122969039D01*
X155386462Y-122915345D01*
X154927073Y-122455154D01*
X154326547Y-122205794D01*
X153676306Y-122205226D01*
X153075345Y-122453538D01*
X152615154Y-122912927D01*
X152365794Y-123513453D01*
X152365226Y-124163694D01*
X146710000Y-124163694D01*
X146710000Y-119000000D01*
X147402560Y-119000000D01*
X147402560Y-121000000D01*
X147446838Y-121235317D01*
X147585910Y-121451441D01*
X147798110Y-121596431D01*
X148050000Y-121647440D01*
X149950000Y-121647440D01*
X150185317Y-121603162D01*
X150401441Y-121464090D01*
X150546431Y-121251890D01*
X150547055Y-121248808D01*
X150640997Y-121342914D01*
X151223341Y-121584724D01*
X151853893Y-121585275D01*
X152436657Y-121344481D01*
X152882914Y-120899003D01*
X153124724Y-120316659D01*
X153125275Y-119686107D01*
X152884481Y-119103343D01*
X152439003Y-118657086D01*
X151856659Y-118415276D01*
X151226107Y-118414725D01*
X150643343Y-118655519D01*
X150545663Y-118753029D01*
X150414090Y-118548559D01*
X150201890Y-118403569D01*
X149950000Y-118352560D01*
X148050000Y-118352560D01*
X147814683Y-118396838D01*
X147598559Y-118535910D01*
X147453569Y-118748110D01*
X147402560Y-119000000D01*
X146710000Y-119000000D01*
X146710000Y-117163694D01*
X156365226Y-117163694D01*
X156613538Y-117764655D01*
X157072927Y-118224846D01*
X157673453Y-118474206D01*
X158323694Y-118474774D01*
X158924655Y-118226462D01*
X159384846Y-117767073D01*
X159634206Y-117166547D01*
X159634774Y-116516306D01*
X159386462Y-115915345D01*
X158927073Y-115455154D01*
X158326547Y-115205794D01*
X157676306Y-115205226D01*
X157075345Y-115453538D01*
X156615154Y-115912927D01*
X156365794Y-116513453D01*
X156365226Y-117163694D01*
X146710000Y-117163694D01*
X146710000Y-115000000D01*
X167536887Y-115000000D01*
X167646120Y-115549151D01*
X167957189Y-116014698D01*
X168339275Y-116270000D01*
X167957189Y-116525302D01*
X167646120Y-116990849D01*
X167536887Y-117540000D01*
X167646120Y-118089151D01*
X167957189Y-118554698D01*
X168339275Y-118810000D01*
X167957189Y-119065302D01*
X167646120Y-119530849D01*
X167536887Y-120080000D01*
X167646120Y-120629151D01*
X167957189Y-121094698D01*
X168361703Y-121364986D01*
X168144866Y-121467611D01*
X167768959Y-121882577D01*
X167608096Y-122270961D01*
X167730085Y-122493000D01*
X168873000Y-122493000D01*
X168873000Y-122473000D01*
X169127000Y-122473000D01*
X169127000Y-122493000D01*
X170269915Y-122493000D01*
X170391904Y-122270961D01*
X170231041Y-121882577D01*
X169855134Y-121467611D01*
X169638297Y-121364986D01*
X170042811Y-121094698D01*
X170353880Y-120629151D01*
X170463113Y-120080000D01*
X170353880Y-119530849D01*
X170042811Y-119065302D01*
X169660725Y-118810000D01*
X170042811Y-118554698D01*
X170353880Y-118089151D01*
X170463113Y-117540000D01*
X170353880Y-116990849D01*
X170042811Y-116525302D01*
X169660725Y-116270000D01*
X170042811Y-116014698D01*
X170353880Y-115549151D01*
X170463113Y-115000000D01*
X175156887Y-115000000D01*
X175266120Y-115549151D01*
X175577189Y-116014698D01*
X175959275Y-116270000D01*
X175577189Y-116525302D01*
X175266120Y-116990849D01*
X175156887Y-117540000D01*
X175266120Y-118089151D01*
X175577189Y-118554698D01*
X175959275Y-118810000D01*
X175577189Y-119065302D01*
X175266120Y-119530849D01*
X175156887Y-120080000D01*
X175266120Y-120629151D01*
X175577189Y-121094698D01*
X175959275Y-121350000D01*
X175577189Y-121605302D01*
X175266120Y-122070849D01*
X175156887Y-122620000D01*
X175266120Y-123169151D01*
X175577189Y-123634698D01*
X176042736Y-123945767D01*
X176591887Y-124055000D01*
X176648113Y-124055000D01*
X177197264Y-123945767D01*
X177662811Y-123634698D01*
X177973880Y-123169151D01*
X178083113Y-122620000D01*
X177973880Y-122070849D01*
X177662811Y-121605302D01*
X177280725Y-121350000D01*
X177662811Y-121094698D01*
X177973880Y-120629151D01*
X178036588Y-120313893D01*
X185874725Y-120313893D01*
X186115519Y-120896657D01*
X186560997Y-121342914D01*
X187143341Y-121584724D01*
X187773893Y-121585275D01*
X188356657Y-121344481D01*
X188454337Y-121246971D01*
X188585910Y-121451441D01*
X188798110Y-121596431D01*
X189050000Y-121647440D01*
X190950000Y-121647440D01*
X191185317Y-121603162D01*
X191401441Y-121464090D01*
X191546431Y-121251890D01*
X191597440Y-121000000D01*
X191597440Y-119000000D01*
X191553162Y-118764683D01*
X191414090Y-118548559D01*
X191401564Y-118540000D01*
X199027091Y-118540000D01*
X199151548Y-119165687D01*
X199505971Y-119696120D01*
X200036404Y-120050543D01*
X200662091Y-120175000D01*
X201337909Y-120175000D01*
X201963596Y-120050543D01*
X202494029Y-119696120D01*
X202848452Y-119165687D01*
X202972909Y-118540000D01*
X202848452Y-117914313D01*
X202608907Y-117555808D01*
X202751441Y-117464090D01*
X202896431Y-117251890D01*
X202947440Y-117000000D01*
X202947440Y-115000000D01*
X202903162Y-114764683D01*
X202764090Y-114548559D01*
X202551890Y-114403569D01*
X202300000Y-114352560D01*
X199700000Y-114352560D01*
X199464683Y-114396838D01*
X199248559Y-114535910D01*
X199103569Y-114748110D01*
X199052560Y-115000000D01*
X199052560Y-117000000D01*
X199096838Y-117235317D01*
X199235910Y-117451441D01*
X199390329Y-117556951D01*
X199151548Y-117914313D01*
X199027091Y-118540000D01*
X191401564Y-118540000D01*
X191201890Y-118403569D01*
X190950000Y-118352560D01*
X189050000Y-118352560D01*
X188814683Y-118396838D01*
X188598559Y-118535910D01*
X188453569Y-118748110D01*
X188452945Y-118751192D01*
X188359003Y-118657086D01*
X187776659Y-118415276D01*
X187146107Y-118414725D01*
X186563343Y-118655519D01*
X186117086Y-119100997D01*
X185875276Y-119683341D01*
X185874725Y-120313893D01*
X178036588Y-120313893D01*
X178083113Y-120080000D01*
X177973880Y-119530849D01*
X177662811Y-119065302D01*
X177280725Y-118810000D01*
X177662811Y-118554698D01*
X177973880Y-118089151D01*
X178083113Y-117540000D01*
X177973880Y-116990849D01*
X177662811Y-116525302D01*
X177280725Y-116270000D01*
X177662811Y-116014698D01*
X177973880Y-115549151D01*
X178055981Y-115136400D01*
X181336560Y-115136400D01*
X181336560Y-116863600D01*
X181380838Y-117098917D01*
X181519910Y-117315041D01*
X181732110Y-117460031D01*
X181984000Y-117511040D01*
X184016000Y-117511040D01*
X184251317Y-117466762D01*
X184467441Y-117327690D01*
X184612431Y-117115490D01*
X184663440Y-116863600D01*
X184663440Y-115136400D01*
X184619162Y-114901083D01*
X184480090Y-114684959D01*
X184267890Y-114539969D01*
X184173073Y-114520768D01*
X184350732Y-114362036D01*
X184604709Y-113834791D01*
X184607358Y-113819026D01*
X184486217Y-113587000D01*
X183127000Y-113587000D01*
X183127000Y-113607000D01*
X182873000Y-113607000D01*
X182873000Y-113587000D01*
X181513783Y-113587000D01*
X181392642Y-113819026D01*
X181395291Y-113834791D01*
X181649268Y-114362036D01*
X181824845Y-114518907D01*
X181748683Y-114533238D01*
X181532559Y-114672310D01*
X181387569Y-114884510D01*
X181336560Y-115136400D01*
X178055981Y-115136400D01*
X178083113Y-115000000D01*
X177973880Y-114450849D01*
X177662811Y-113985302D01*
X177197264Y-113674233D01*
X176648113Y-113565000D01*
X176591887Y-113565000D01*
X176042736Y-113674233D01*
X175577189Y-113985302D01*
X175266120Y-114450849D01*
X175156887Y-115000000D01*
X170463113Y-115000000D01*
X170353880Y-114450849D01*
X170042811Y-113985302D01*
X169577264Y-113674233D01*
X169028113Y-113565000D01*
X168971887Y-113565000D01*
X168422736Y-113674233D01*
X167957189Y-113985302D01*
X167646120Y-114450849D01*
X167536887Y-115000000D01*
X146710000Y-115000000D01*
X146710000Y-113513970D01*
X148665635Y-113513970D01*
X148825418Y-113832739D01*
X149616187Y-114142723D01*
X150465387Y-114126497D01*
X151174582Y-113832739D01*
X151334365Y-113513970D01*
X150000000Y-112179605D01*
X148665635Y-113513970D01*
X146710000Y-113513970D01*
X146710000Y-111616187D01*
X147857277Y-111616187D01*
X147873503Y-112465387D01*
X148167261Y-113174582D01*
X148486030Y-113334365D01*
X149820395Y-112000000D01*
X150179605Y-112000000D01*
X151513970Y-113334365D01*
X151832739Y-113174582D01*
X152142723Y-112383813D01*
X152126497Y-111534613D01*
X151871917Y-110920000D01*
X181316655Y-110920000D01*
X181430729Y-111493489D01*
X181755585Y-111979670D01*
X182065069Y-112186461D01*
X181649268Y-112557964D01*
X181395291Y-113085209D01*
X181392642Y-113100974D01*
X181513783Y-113333000D01*
X182873000Y-113333000D01*
X182873000Y-113313000D01*
X183127000Y-113313000D01*
X183127000Y-113333000D01*
X184486217Y-113333000D01*
X184607358Y-113100974D01*
X184604709Y-113085209D01*
X184350732Y-112557964D01*
X183934931Y-112186461D01*
X184244415Y-111979670D01*
X184569271Y-111493489D01*
X184683345Y-110920000D01*
X184569271Y-110346511D01*
X184439412Y-110152163D01*
X188027443Y-110152163D01*
X188126042Y-110418965D01*
X188735582Y-110645401D01*
X189385377Y-110621341D01*
X189873958Y-110418965D01*
X189972557Y-110152163D01*
X189000000Y-109179605D01*
X188027443Y-110152163D01*
X184439412Y-110152163D01*
X184244415Y-109860330D01*
X183758234Y-109535474D01*
X183184745Y-109421400D01*
X182815255Y-109421400D01*
X182241766Y-109535474D01*
X181755585Y-109860330D01*
X181430729Y-110346511D01*
X181316655Y-110920000D01*
X151871917Y-110920000D01*
X151832739Y-110825418D01*
X151513970Y-110665635D01*
X150179605Y-112000000D01*
X149820395Y-112000000D01*
X148486030Y-110665635D01*
X148167261Y-110825418D01*
X147857277Y-111616187D01*
X146710000Y-111616187D01*
X146710000Y-110486030D01*
X148665635Y-110486030D01*
X150000000Y-111820395D01*
X151334365Y-110486030D01*
X151174582Y-110167261D01*
X150383813Y-109857277D01*
X149534613Y-109873503D01*
X148825418Y-110167261D01*
X148665635Y-110486030D01*
X146710000Y-110486030D01*
X146710000Y-108735582D01*
X187354599Y-108735582D01*
X187378659Y-109385377D01*
X187581035Y-109873958D01*
X187847837Y-109972557D01*
X188820395Y-109000000D01*
X189179605Y-109000000D01*
X190152163Y-109972557D01*
X190418965Y-109873958D01*
X190623380Y-109323694D01*
X197525226Y-109323694D01*
X197773538Y-109924655D01*
X198232927Y-110384846D01*
X198833453Y-110634206D01*
X199483694Y-110634774D01*
X200084655Y-110386462D01*
X200544846Y-109927073D01*
X200794206Y-109326547D01*
X200794774Y-108676306D01*
X200546462Y-108075345D01*
X200087073Y-107615154D01*
X199486547Y-107365794D01*
X198836306Y-107365226D01*
X198235345Y-107613538D01*
X197775154Y-108072927D01*
X197525794Y-108673453D01*
X197525226Y-109323694D01*
X190623380Y-109323694D01*
X190645401Y-109264418D01*
X190621341Y-108614623D01*
X190418965Y-108126042D01*
X190152163Y-108027443D01*
X189179605Y-109000000D01*
X188820395Y-109000000D01*
X187847837Y-108027443D01*
X187581035Y-108126042D01*
X187354599Y-108735582D01*
X146710000Y-108735582D01*
X146710000Y-105373305D01*
X148114674Y-105373305D01*
X148401043Y-106066372D01*
X148930839Y-106597093D01*
X149623405Y-106884672D01*
X150373305Y-106885326D01*
X151066372Y-106598957D01*
X151380125Y-106285750D01*
X156365000Y-106285750D01*
X156365000Y-107426310D01*
X156461673Y-107659699D01*
X156640302Y-107838327D01*
X156873691Y-107935000D01*
X157714250Y-107935000D01*
X157873000Y-107776250D01*
X157873000Y-106127000D01*
X156523750Y-106127000D01*
X156365000Y-106285750D01*
X151380125Y-106285750D01*
X151597093Y-106069161D01*
X151884672Y-105376595D01*
X151885326Y-104626695D01*
X151863425Y-104573690D01*
X156365000Y-104573690D01*
X156365000Y-105714250D01*
X156523750Y-105873000D01*
X157873000Y-105873000D01*
X157873000Y-104223750D01*
X158127000Y-104223750D01*
X158127000Y-105873000D01*
X158147000Y-105873000D01*
X158147000Y-106127000D01*
X158127000Y-106127000D01*
X158127000Y-107776250D01*
X158285750Y-107935000D01*
X159126309Y-107935000D01*
X159359698Y-107838327D01*
X159538327Y-107659699D01*
X159558594Y-107610769D01*
X159914313Y-107848452D01*
X160540000Y-107972909D01*
X161165687Y-107848452D01*
X161696120Y-107494029D01*
X161809933Y-107323694D01*
X167365226Y-107323694D01*
X167613538Y-107924655D01*
X168072927Y-108384846D01*
X168673453Y-108634206D01*
X169323694Y-108634774D01*
X169924655Y-108386462D01*
X170384846Y-107927073D01*
X170634206Y-107326547D01*
X170634208Y-107323694D01*
X177525226Y-107323694D01*
X177773538Y-107924655D01*
X178232927Y-108384846D01*
X178833453Y-108634206D01*
X179483694Y-108634774D01*
X180084655Y-108386462D01*
X180544846Y-107927073D01*
X180577747Y-107847837D01*
X188027443Y-107847837D01*
X189000000Y-108820395D01*
X189972557Y-107847837D01*
X189873958Y-107581035D01*
X189264418Y-107354599D01*
X188614623Y-107378659D01*
X188126042Y-107581035D01*
X188027443Y-107847837D01*
X180577747Y-107847837D01*
X180794206Y-107326547D01*
X180794774Y-106676306D01*
X180546462Y-106075345D01*
X180087073Y-105615154D01*
X179504636Y-105373305D01*
X200114674Y-105373305D01*
X200401043Y-106066372D01*
X200930839Y-106597093D01*
X201623405Y-106884672D01*
X202373305Y-106885326D01*
X203066372Y-106598957D01*
X203597093Y-106069161D01*
X203884672Y-105376595D01*
X203885326Y-104626695D01*
X203598957Y-103933628D01*
X203069161Y-103402907D01*
X202376595Y-103115328D01*
X201626695Y-103114674D01*
X200933628Y-103401043D01*
X200402907Y-103930839D01*
X200115328Y-104623405D01*
X200114674Y-105373305D01*
X179504636Y-105373305D01*
X179486547Y-105365794D01*
X178836306Y-105365226D01*
X178235345Y-105613538D01*
X177775154Y-106072927D01*
X177525794Y-106673453D01*
X177525226Y-107323694D01*
X170634208Y-107323694D01*
X170634774Y-106676306D01*
X170386462Y-106075345D01*
X169927073Y-105615154D01*
X169326547Y-105365794D01*
X168676306Y-105365226D01*
X168075345Y-105613538D01*
X167615154Y-106072927D01*
X167365794Y-106673453D01*
X167365226Y-107323694D01*
X161809933Y-107323694D01*
X162050543Y-106963596D01*
X162175000Y-106337909D01*
X162175000Y-105662091D01*
X162050543Y-105036404D01*
X161696120Y-104505971D01*
X161165687Y-104151548D01*
X160540000Y-104027091D01*
X159914313Y-104151548D01*
X159558594Y-104389231D01*
X159538327Y-104340301D01*
X159359698Y-104161673D01*
X159126309Y-104065000D01*
X158285750Y-104065000D01*
X158127000Y-104223750D01*
X157873000Y-104223750D01*
X157714250Y-104065000D01*
X156873691Y-104065000D01*
X156640302Y-104161673D01*
X156461673Y-104340301D01*
X156365000Y-104573690D01*
X151863425Y-104573690D01*
X151598957Y-103933628D01*
X151069161Y-103402907D01*
X150376595Y-103115328D01*
X149626695Y-103114674D01*
X148933628Y-103401043D01*
X148402907Y-103930839D01*
X148115328Y-104623405D01*
X148114674Y-105373305D01*
X146710000Y-105373305D01*
X146710000Y-101710000D01*
X205290000Y-101710000D01*
X205290000Y-140290000D01*
M02*
