G04 #@! TF.FileFunction,Copper,L1,Top,Signal*
%FSLAX46Y46*%
G04 Gerber Fmt 4.6, Leading zero omitted, Abs format (unit mm)*
G04 Created by KiCad (PCBNEW 4.0.5+dfsg1-4) date Sat Jul  7 16:24:38 2018*
%MOMM*%
%LPD*%
G01*
G04 APERTURE LIST*
%ADD10C,0.100000*%
%ADD11R,1.900000X2.000000*%
%ADD12C,1.900000*%
%ADD13C,1.998980*%
%ADD14O,1.600000X1.600000*%
%ADD15R,2.000000X2.600000*%
%ADD16O,2.000000X2.600000*%
%ADD17R,2.600000X2.000000*%
%ADD18O,2.600000X2.000000*%
%ADD19C,3.000000*%
%ADD20C,1.500000*%
%ADD21R,2.032000X1.727200*%
%ADD22O,2.032000X1.727200*%
%ADD23C,0.250000*%
%ADD24C,0.254000*%
G04 APERTURE END LIST*
D10*
D11*
X149000000Y-120000000D03*
D12*
X151540000Y-120000000D03*
D13*
X158000000Y-127000000D03*
X158000000Y-116840000D03*
D14*
X169000000Y-115000000D03*
X169000000Y-117540000D03*
X169000000Y-120080000D03*
X169000000Y-122620000D03*
X176620000Y-122620000D03*
X176620000Y-120080000D03*
X176620000Y-117540000D03*
X176620000Y-115000000D03*
D11*
X190000000Y-120000000D03*
D12*
X187460000Y-120000000D03*
D15*
X164000000Y-135000000D03*
D16*
X161460000Y-135000000D03*
X158920000Y-135000000D03*
D15*
X174000000Y-135000000D03*
D16*
X171460000Y-135000000D03*
X168920000Y-135000000D03*
D15*
X158000000Y-106000000D03*
D16*
X160540000Y-106000000D03*
D17*
X201000000Y-116000000D03*
D18*
X201000000Y-118540000D03*
D19*
X150000000Y-112000000D03*
D20*
X182000000Y-135000000D03*
D21*
X183000000Y-116000000D03*
D22*
X183000000Y-113460000D03*
X183000000Y-110920000D03*
D13*
X199000000Y-131000000D03*
X188840000Y-131000000D03*
X189000000Y-109000000D03*
X199160000Y-109000000D03*
X154000000Y-134000000D03*
X154000000Y-123840000D03*
X169000000Y-107000000D03*
X179160000Y-107000000D03*
D23*
X188840000Y-131000000D02*
X188840000Y-121160000D01*
X188840000Y-121160000D02*
X190000000Y-120000000D01*
X176620000Y-122620000D02*
X184840000Y-122620000D01*
X184840000Y-122620000D02*
X187460000Y-120000000D01*
X149000000Y-120000000D02*
X149000000Y-121000000D01*
X149000000Y-121000000D02*
X151840000Y-123840000D01*
X151840000Y-123840000D02*
X154000000Y-123840000D01*
X149000000Y-120000000D02*
X149160000Y-120000000D01*
X151540000Y-120000000D02*
X168920000Y-120000000D01*
X168920000Y-120000000D02*
X169000000Y-120080000D01*
X164000000Y-135000000D02*
X164000000Y-130000000D01*
X166000000Y-128000000D02*
X174000000Y-128000000D01*
X164000000Y-130000000D02*
X166000000Y-128000000D01*
X174000000Y-135000000D02*
X174000000Y-128000000D01*
X174000000Y-128000000D02*
X174000000Y-122540000D01*
X174000000Y-122540000D02*
X169000000Y-117540000D01*
X174000000Y-135000000D02*
X182000000Y-135000000D01*
X158000000Y-116840000D02*
X168300000Y-116840000D01*
X168300000Y-116840000D02*
X169000000Y-117540000D01*
X201000000Y-118540000D02*
X194540000Y-118540000D01*
X178700000Y-118000000D02*
X176620000Y-120080000D01*
X194000000Y-118000000D02*
X178700000Y-118000000D01*
X194540000Y-118540000D02*
X194000000Y-118000000D01*
X183000000Y-116000000D02*
X178160000Y-116000000D01*
X178160000Y-116000000D02*
X176620000Y-117540000D01*
X201000000Y-116000000D02*
X201000000Y-110840000D01*
X201000000Y-110840000D02*
X199160000Y-109000000D01*
X169000000Y-107000000D02*
X169000000Y-115000000D01*
D24*
G36*
X205290000Y-140290000D02*
X146710000Y-140290000D01*
X146710000Y-137373305D01*
X148114674Y-137373305D01*
X148401043Y-138066372D01*
X148930839Y-138597093D01*
X149623405Y-138884672D01*
X150373305Y-138885326D01*
X151066372Y-138598957D01*
X151597093Y-138069161D01*
X151884672Y-137376595D01*
X151885326Y-136626695D01*
X151598957Y-135933628D01*
X151069161Y-135402907D01*
X150376595Y-135115328D01*
X149626695Y-135114674D01*
X148933628Y-135401043D01*
X148402907Y-135930839D01*
X148115328Y-136623405D01*
X148114674Y-137373305D01*
X146710000Y-137373305D01*
X146710000Y-134323694D01*
X152365226Y-134323694D01*
X152613538Y-134924655D01*
X153072927Y-135384846D01*
X153673453Y-135634206D01*
X154323694Y-135634774D01*
X154924655Y-135386462D01*
X155384846Y-134927073D01*
X155494876Y-134662091D01*
X157285000Y-134662091D01*
X157285000Y-135337909D01*
X157409457Y-135963596D01*
X157763880Y-136494029D01*
X158294313Y-136848452D01*
X158920000Y-136972909D01*
X159545687Y-136848452D01*
X160076120Y-136494029D01*
X160203219Y-136303812D01*
X160393683Y-136545922D01*
X160951645Y-136859144D01*
X161079566Y-136890124D01*
X161333000Y-136770777D01*
X161333000Y-135127000D01*
X161313000Y-135127000D01*
X161313000Y-134873000D01*
X161333000Y-134873000D01*
X161333000Y-133229223D01*
X161079566Y-133109876D01*
X160951645Y-133140856D01*
X160393683Y-133454078D01*
X160203219Y-133696188D01*
X160076120Y-133505971D01*
X159545687Y-133151548D01*
X158920000Y-133027091D01*
X158294313Y-133151548D01*
X157763880Y-133505971D01*
X157409457Y-134036404D01*
X157285000Y-134662091D01*
X155494876Y-134662091D01*
X155634206Y-134326547D01*
X155634774Y-133676306D01*
X155386462Y-133075345D01*
X154927073Y-132615154D01*
X154326547Y-132365794D01*
X153676306Y-132365226D01*
X153075345Y-132613538D01*
X152615154Y-133072927D01*
X152365794Y-133673453D01*
X152365226Y-134323694D01*
X146710000Y-134323694D01*
X146710000Y-128152163D01*
X157027443Y-128152163D01*
X157126042Y-128418965D01*
X157735582Y-128645401D01*
X158385377Y-128621341D01*
X158873958Y-128418965D01*
X158972557Y-128152163D01*
X158000000Y-127179605D01*
X157027443Y-128152163D01*
X146710000Y-128152163D01*
X146710000Y-126735582D01*
X156354599Y-126735582D01*
X156378659Y-127385377D01*
X156581035Y-127873958D01*
X156847837Y-127972557D01*
X157820395Y-127000000D01*
X158179605Y-127000000D01*
X159152163Y-127972557D01*
X159418965Y-127873958D01*
X159645401Y-127264418D01*
X159621341Y-126614623D01*
X159418965Y-126126042D01*
X159152163Y-126027443D01*
X158179605Y-127000000D01*
X157820395Y-127000000D01*
X156847837Y-126027443D01*
X156581035Y-126126042D01*
X156354599Y-126735582D01*
X146710000Y-126735582D01*
X146710000Y-125847837D01*
X157027443Y-125847837D01*
X158000000Y-126820395D01*
X158972557Y-125847837D01*
X158873958Y-125581035D01*
X158264418Y-125354599D01*
X157614623Y-125378659D01*
X157126042Y-125581035D01*
X157027443Y-125847837D01*
X146710000Y-125847837D01*
X146710000Y-119000000D01*
X147402560Y-119000000D01*
X147402560Y-121000000D01*
X147446838Y-121235317D01*
X147585910Y-121451441D01*
X147798110Y-121596431D01*
X148050000Y-121647440D01*
X148572638Y-121647440D01*
X151302599Y-124377401D01*
X151549161Y-124542148D01*
X151840000Y-124600000D01*
X152545504Y-124600000D01*
X152613538Y-124764655D01*
X153072927Y-125224846D01*
X153673453Y-125474206D01*
X154323694Y-125474774D01*
X154924655Y-125226462D01*
X155384846Y-124767073D01*
X155634206Y-124166547D01*
X155634774Y-123516306D01*
X155386462Y-122915345D01*
X154927073Y-122455154D01*
X154326547Y-122205794D01*
X153676306Y-122205226D01*
X153075345Y-122453538D01*
X152615154Y-122912927D01*
X152545779Y-123080000D01*
X152154802Y-123080000D01*
X150457235Y-121382433D01*
X150546431Y-121251890D01*
X150547055Y-121248808D01*
X150640997Y-121342914D01*
X151223341Y-121584724D01*
X151853893Y-121585275D01*
X152436657Y-121344481D01*
X152882914Y-120899003D01*
X152940633Y-120760000D01*
X167733551Y-120760000D01*
X167957189Y-121094698D01*
X168339275Y-121350000D01*
X167957189Y-121605302D01*
X167646120Y-122070849D01*
X167536887Y-122620000D01*
X167646120Y-123169151D01*
X167957189Y-123634698D01*
X168422736Y-123945767D01*
X168971887Y-124055000D01*
X169028113Y-124055000D01*
X169577264Y-123945767D01*
X170042811Y-123634698D01*
X170353880Y-123169151D01*
X170463113Y-122620000D01*
X170353880Y-122070849D01*
X170042811Y-121605302D01*
X169660725Y-121350000D01*
X170042811Y-121094698D01*
X170353880Y-120629151D01*
X170463113Y-120080000D01*
X170462595Y-120077397D01*
X173240000Y-122854802D01*
X173240000Y-127240000D01*
X166000000Y-127240000D01*
X165709161Y-127297852D01*
X165462599Y-127462599D01*
X163462599Y-129462599D01*
X163297852Y-129709161D01*
X163240000Y-130000000D01*
X163240000Y-133052560D01*
X163000000Y-133052560D01*
X162764683Y-133096838D01*
X162548559Y-133235910D01*
X162434651Y-133402620D01*
X161968355Y-133140856D01*
X161840434Y-133109876D01*
X161587000Y-133229223D01*
X161587000Y-134873000D01*
X161607000Y-134873000D01*
X161607000Y-135127000D01*
X161587000Y-135127000D01*
X161587000Y-136770777D01*
X161840434Y-136890124D01*
X161968355Y-136859144D01*
X162436211Y-136596505D01*
X162535910Y-136751441D01*
X162748110Y-136896431D01*
X163000000Y-136947440D01*
X165000000Y-136947440D01*
X165235317Y-136903162D01*
X165451441Y-136764090D01*
X165596431Y-136551890D01*
X165647440Y-136300000D01*
X165647440Y-134662091D01*
X167285000Y-134662091D01*
X167285000Y-135337909D01*
X167409457Y-135963596D01*
X167763880Y-136494029D01*
X168294313Y-136848452D01*
X168920000Y-136972909D01*
X169545687Y-136848452D01*
X170076120Y-136494029D01*
X170203219Y-136303812D01*
X170393683Y-136545922D01*
X170951645Y-136859144D01*
X171079566Y-136890124D01*
X171333000Y-136770777D01*
X171333000Y-135127000D01*
X171313000Y-135127000D01*
X171313000Y-134873000D01*
X171333000Y-134873000D01*
X171333000Y-133229223D01*
X171079566Y-133109876D01*
X170951645Y-133140856D01*
X170393683Y-133454078D01*
X170203219Y-133696188D01*
X170076120Y-133505971D01*
X169545687Y-133151548D01*
X168920000Y-133027091D01*
X168294313Y-133151548D01*
X167763880Y-133505971D01*
X167409457Y-134036404D01*
X167285000Y-134662091D01*
X165647440Y-134662091D01*
X165647440Y-133700000D01*
X165603162Y-133464683D01*
X165464090Y-133248559D01*
X165251890Y-133103569D01*
X165000000Y-133052560D01*
X164760000Y-133052560D01*
X164760000Y-130314802D01*
X166314802Y-128760000D01*
X173240000Y-128760000D01*
X173240000Y-133052560D01*
X173000000Y-133052560D01*
X172764683Y-133096838D01*
X172548559Y-133235910D01*
X172434651Y-133402620D01*
X171968355Y-133140856D01*
X171840434Y-133109876D01*
X171587000Y-133229223D01*
X171587000Y-134873000D01*
X171607000Y-134873000D01*
X171607000Y-135127000D01*
X171587000Y-135127000D01*
X171587000Y-136770777D01*
X171840434Y-136890124D01*
X171968355Y-136859144D01*
X172436211Y-136596505D01*
X172535910Y-136751441D01*
X172748110Y-136896431D01*
X173000000Y-136947440D01*
X175000000Y-136947440D01*
X175235317Y-136903162D01*
X175451441Y-136764090D01*
X175596431Y-136551890D01*
X175647440Y-136300000D01*
X175647440Y-135760000D01*
X180815453Y-135760000D01*
X180825169Y-135783515D01*
X181214436Y-136173461D01*
X181723298Y-136384759D01*
X182274285Y-136385240D01*
X182783515Y-136174831D01*
X183173461Y-135785564D01*
X183384759Y-135276702D01*
X183385240Y-134725715D01*
X183174831Y-134216485D01*
X182785564Y-133826539D01*
X182276702Y-133615241D01*
X181725715Y-133614760D01*
X181216485Y-133825169D01*
X180826539Y-134214436D01*
X180815924Y-134240000D01*
X175647440Y-134240000D01*
X175647440Y-133700000D01*
X175603162Y-133464683D01*
X175464090Y-133248559D01*
X175251890Y-133103569D01*
X175000000Y-133052560D01*
X174760000Y-133052560D01*
X174760000Y-122540000D01*
X174702148Y-122249161D01*
X174537401Y-122002599D01*
X170398688Y-117863886D01*
X170463113Y-117540000D01*
X175156887Y-117540000D01*
X175266120Y-118089151D01*
X175577189Y-118554698D01*
X175959275Y-118810000D01*
X175577189Y-119065302D01*
X175266120Y-119530849D01*
X175156887Y-120080000D01*
X175266120Y-120629151D01*
X175577189Y-121094698D01*
X175959275Y-121350000D01*
X175577189Y-121605302D01*
X175266120Y-122070849D01*
X175156887Y-122620000D01*
X175266120Y-123169151D01*
X175577189Y-123634698D01*
X176042736Y-123945767D01*
X176591887Y-124055000D01*
X176648113Y-124055000D01*
X177197264Y-123945767D01*
X177662811Y-123634698D01*
X177832995Y-123380000D01*
X184840000Y-123380000D01*
X185130839Y-123322148D01*
X185377401Y-123157401D01*
X187006782Y-121528020D01*
X187143341Y-121584724D01*
X187773893Y-121585275D01*
X188080000Y-121458794D01*
X188080000Y-129545504D01*
X187915345Y-129613538D01*
X187455154Y-130072927D01*
X187205794Y-130673453D01*
X187205226Y-131323694D01*
X187453538Y-131924655D01*
X187912927Y-132384846D01*
X188513453Y-132634206D01*
X189163694Y-132634774D01*
X189764655Y-132386462D01*
X190224846Y-131927073D01*
X190474206Y-131326547D01*
X190474208Y-131323694D01*
X197365226Y-131323694D01*
X197613538Y-131924655D01*
X198072927Y-132384846D01*
X198673453Y-132634206D01*
X199323694Y-132634774D01*
X199924655Y-132386462D01*
X200384846Y-131927073D01*
X200634206Y-131326547D01*
X200634774Y-130676306D01*
X200386462Y-130075345D01*
X199927073Y-129615154D01*
X199326547Y-129365794D01*
X198676306Y-129365226D01*
X198075345Y-129613538D01*
X197615154Y-130072927D01*
X197365794Y-130673453D01*
X197365226Y-131323694D01*
X190474208Y-131323694D01*
X190474774Y-130676306D01*
X190226462Y-130075345D01*
X189767073Y-129615154D01*
X189600000Y-129545779D01*
X189600000Y-121647440D01*
X190950000Y-121647440D01*
X191185317Y-121603162D01*
X191401441Y-121464090D01*
X191546431Y-121251890D01*
X191597440Y-121000000D01*
X191597440Y-119000000D01*
X191553162Y-118764683D01*
X191550149Y-118760000D01*
X193685198Y-118760000D01*
X194002599Y-119077401D01*
X194249160Y-119242148D01*
X194540000Y-119300000D01*
X199241293Y-119300000D01*
X199505971Y-119696120D01*
X200036404Y-120050543D01*
X200662091Y-120175000D01*
X201337909Y-120175000D01*
X201963596Y-120050543D01*
X202494029Y-119696120D01*
X202848452Y-119165687D01*
X202972909Y-118540000D01*
X202848452Y-117914313D01*
X202608907Y-117555808D01*
X202751441Y-117464090D01*
X202896431Y-117251890D01*
X202947440Y-117000000D01*
X202947440Y-115000000D01*
X202903162Y-114764683D01*
X202764090Y-114548559D01*
X202551890Y-114403569D01*
X202300000Y-114352560D01*
X201760000Y-114352560D01*
X201760000Y-110840000D01*
X201702148Y-110549161D01*
X201537401Y-110302599D01*
X200725885Y-109491083D01*
X200794206Y-109326547D01*
X200794774Y-108676306D01*
X200546462Y-108075345D01*
X200087073Y-107615154D01*
X199486547Y-107365794D01*
X198836306Y-107365226D01*
X198235345Y-107613538D01*
X197775154Y-108072927D01*
X197525794Y-108673453D01*
X197525226Y-109323694D01*
X197773538Y-109924655D01*
X198232927Y-110384846D01*
X198833453Y-110634206D01*
X199483694Y-110634774D01*
X199650889Y-110565691D01*
X200240000Y-111154802D01*
X200240000Y-114352560D01*
X199700000Y-114352560D01*
X199464683Y-114396838D01*
X199248559Y-114535910D01*
X199103569Y-114748110D01*
X199052560Y-115000000D01*
X199052560Y-117000000D01*
X199096838Y-117235317D01*
X199235910Y-117451441D01*
X199390329Y-117556951D01*
X199241293Y-117780000D01*
X194854802Y-117780000D01*
X194537401Y-117462599D01*
X194290839Y-117297852D01*
X194000000Y-117240000D01*
X184527357Y-117240000D01*
X184612431Y-117115490D01*
X184663440Y-116863600D01*
X184663440Y-115136400D01*
X184619162Y-114901083D01*
X184480090Y-114684959D01*
X184267890Y-114539969D01*
X184226561Y-114531600D01*
X184244415Y-114519670D01*
X184569271Y-114033489D01*
X184683345Y-113460000D01*
X184569271Y-112886511D01*
X184244415Y-112400330D01*
X183934931Y-112193539D01*
X184350732Y-111822036D01*
X184604709Y-111294791D01*
X184607358Y-111279026D01*
X184486217Y-111047000D01*
X183127000Y-111047000D01*
X183127000Y-111067000D01*
X182873000Y-111067000D01*
X182873000Y-111047000D01*
X181513783Y-111047000D01*
X181392642Y-111279026D01*
X181395291Y-111294791D01*
X181649268Y-111822036D01*
X182065069Y-112193539D01*
X181755585Y-112400330D01*
X181430729Y-112886511D01*
X181316655Y-113460000D01*
X181430729Y-114033489D01*
X181755585Y-114519670D01*
X181769913Y-114529243D01*
X181748683Y-114533238D01*
X181532559Y-114672310D01*
X181387569Y-114884510D01*
X181336560Y-115136400D01*
X181336560Y-115240000D01*
X178160000Y-115240000D01*
X177972490Y-115277298D01*
X177889915Y-115127000D01*
X176747000Y-115127000D01*
X176747000Y-115147000D01*
X176493000Y-115147000D01*
X176493000Y-115127000D01*
X175350085Y-115127000D01*
X175228096Y-115349039D01*
X175388959Y-115737423D01*
X175764866Y-116152389D01*
X175981703Y-116255014D01*
X175577189Y-116525302D01*
X175266120Y-116990849D01*
X175156887Y-117540000D01*
X170463113Y-117540000D01*
X170353880Y-116990849D01*
X170042811Y-116525302D01*
X169660725Y-116270000D01*
X170042811Y-116014698D01*
X170353880Y-115549151D01*
X170463113Y-115000000D01*
X170393685Y-114650961D01*
X175228096Y-114650961D01*
X175350085Y-114873000D01*
X176493000Y-114873000D01*
X176493000Y-113729371D01*
X176747000Y-113729371D01*
X176747000Y-114873000D01*
X177889915Y-114873000D01*
X178011904Y-114650961D01*
X177851041Y-114262577D01*
X177475134Y-113847611D01*
X176969041Y-113608086D01*
X176747000Y-113729371D01*
X176493000Y-113729371D01*
X176270959Y-113608086D01*
X175764866Y-113847611D01*
X175388959Y-114262577D01*
X175228096Y-114650961D01*
X170393685Y-114650961D01*
X170353880Y-114450849D01*
X170042811Y-113985302D01*
X169760000Y-113796333D01*
X169760000Y-110560974D01*
X181392642Y-110560974D01*
X181513783Y-110793000D01*
X182873000Y-110793000D01*
X182873000Y-109579076D01*
X183127000Y-109579076D01*
X183127000Y-110793000D01*
X184486217Y-110793000D01*
X184607358Y-110560974D01*
X184604709Y-110545209D01*
X184350732Y-110017964D01*
X183914320Y-109628046D01*
X183361913Y-109434816D01*
X183127000Y-109579076D01*
X182873000Y-109579076D01*
X182638087Y-109434816D01*
X182085680Y-109628046D01*
X181649268Y-110017964D01*
X181395291Y-110545209D01*
X181392642Y-110560974D01*
X169760000Y-110560974D01*
X169760000Y-109323694D01*
X187365226Y-109323694D01*
X187613538Y-109924655D01*
X188072927Y-110384846D01*
X188673453Y-110634206D01*
X189323694Y-110634774D01*
X189924655Y-110386462D01*
X190384846Y-109927073D01*
X190634206Y-109326547D01*
X190634774Y-108676306D01*
X190386462Y-108075345D01*
X189927073Y-107615154D01*
X189326547Y-107365794D01*
X188676306Y-107365226D01*
X188075345Y-107613538D01*
X187615154Y-108072927D01*
X187365794Y-108673453D01*
X187365226Y-109323694D01*
X169760000Y-109323694D01*
X169760000Y-108454496D01*
X169924655Y-108386462D01*
X170159363Y-108152163D01*
X178187443Y-108152163D01*
X178286042Y-108418965D01*
X178895582Y-108645401D01*
X179545377Y-108621341D01*
X180033958Y-108418965D01*
X180132557Y-108152163D01*
X179160000Y-107179605D01*
X178187443Y-108152163D01*
X170159363Y-108152163D01*
X170384846Y-107927073D01*
X170634206Y-107326547D01*
X170634722Y-106735582D01*
X177514599Y-106735582D01*
X177538659Y-107385377D01*
X177741035Y-107873958D01*
X178007837Y-107972557D01*
X178980395Y-107000000D01*
X179339605Y-107000000D01*
X180312163Y-107972557D01*
X180578965Y-107873958D01*
X180805401Y-107264418D01*
X180781341Y-106614623D01*
X180578965Y-106126042D01*
X180312163Y-106027443D01*
X179339605Y-107000000D01*
X178980395Y-107000000D01*
X178007837Y-106027443D01*
X177741035Y-106126042D01*
X177514599Y-106735582D01*
X170634722Y-106735582D01*
X170634774Y-106676306D01*
X170386462Y-106075345D01*
X170159351Y-105847837D01*
X178187443Y-105847837D01*
X179160000Y-106820395D01*
X180132557Y-105847837D01*
X180033958Y-105581035D01*
X179474773Y-105373305D01*
X200114674Y-105373305D01*
X200401043Y-106066372D01*
X200930839Y-106597093D01*
X201623405Y-106884672D01*
X202373305Y-106885326D01*
X203066372Y-106598957D01*
X203597093Y-106069161D01*
X203884672Y-105376595D01*
X203885326Y-104626695D01*
X203598957Y-103933628D01*
X203069161Y-103402907D01*
X202376595Y-103115328D01*
X201626695Y-103114674D01*
X200933628Y-103401043D01*
X200402907Y-103930839D01*
X200115328Y-104623405D01*
X200114674Y-105373305D01*
X179474773Y-105373305D01*
X179424418Y-105354599D01*
X178774623Y-105378659D01*
X178286042Y-105581035D01*
X178187443Y-105847837D01*
X170159351Y-105847837D01*
X169927073Y-105615154D01*
X169326547Y-105365794D01*
X168676306Y-105365226D01*
X168075345Y-105613538D01*
X167615154Y-106072927D01*
X167365794Y-106673453D01*
X167365226Y-107323694D01*
X167613538Y-107924655D01*
X168072927Y-108384846D01*
X168240000Y-108454221D01*
X168240000Y-113796333D01*
X167957189Y-113985302D01*
X167646120Y-114450849D01*
X167536887Y-115000000D01*
X167646120Y-115549151D01*
X167957189Y-116014698D01*
X168054920Y-116080000D01*
X159454496Y-116080000D01*
X159386462Y-115915345D01*
X158927073Y-115455154D01*
X158326547Y-115205794D01*
X157676306Y-115205226D01*
X157075345Y-115453538D01*
X156615154Y-115912927D01*
X156365794Y-116513453D01*
X156365226Y-117163694D01*
X156613538Y-117764655D01*
X157072927Y-118224846D01*
X157673453Y-118474206D01*
X158323694Y-118474774D01*
X158924655Y-118226462D01*
X159384846Y-117767073D01*
X159454221Y-117600000D01*
X167548822Y-117600000D01*
X167646120Y-118089151D01*
X167957189Y-118554698D01*
X168339275Y-118810000D01*
X167957189Y-119065302D01*
X167840459Y-119240000D01*
X152940947Y-119240000D01*
X152884481Y-119103343D01*
X152439003Y-118657086D01*
X151856659Y-118415276D01*
X151226107Y-118414725D01*
X150643343Y-118655519D01*
X150545663Y-118753029D01*
X150414090Y-118548559D01*
X150201890Y-118403569D01*
X149950000Y-118352560D01*
X148050000Y-118352560D01*
X147814683Y-118396838D01*
X147598559Y-118535910D01*
X147453569Y-118748110D01*
X147402560Y-119000000D01*
X146710000Y-119000000D01*
X146710000Y-112422815D01*
X147864630Y-112422815D01*
X148188980Y-113207800D01*
X148789041Y-113808909D01*
X149573459Y-114134628D01*
X150422815Y-114135370D01*
X151207800Y-113811020D01*
X151808909Y-113210959D01*
X152134628Y-112426541D01*
X152135370Y-111577185D01*
X151811020Y-110792200D01*
X151210959Y-110191091D01*
X150426541Y-109865372D01*
X149577185Y-109864630D01*
X148792200Y-110188980D01*
X148191091Y-110789041D01*
X147865372Y-111573459D01*
X147864630Y-112422815D01*
X146710000Y-112422815D01*
X146710000Y-105373305D01*
X148114674Y-105373305D01*
X148401043Y-106066372D01*
X148930839Y-106597093D01*
X149623405Y-106884672D01*
X150373305Y-106885326D01*
X151066372Y-106598957D01*
X151597093Y-106069161D01*
X151884672Y-105376595D01*
X151885262Y-104700000D01*
X156352560Y-104700000D01*
X156352560Y-107300000D01*
X156396838Y-107535317D01*
X156535910Y-107751441D01*
X156748110Y-107896431D01*
X157000000Y-107947440D01*
X159000000Y-107947440D01*
X159235317Y-107903162D01*
X159451441Y-107764090D01*
X159565349Y-107597380D01*
X160031645Y-107859144D01*
X160159566Y-107890124D01*
X160413000Y-107770777D01*
X160413000Y-106127000D01*
X160667000Y-106127000D01*
X160667000Y-107770777D01*
X160920434Y-107890124D01*
X161048355Y-107859144D01*
X161606317Y-107545922D01*
X162001942Y-107043020D01*
X162175000Y-106427000D01*
X162175000Y-106127000D01*
X160667000Y-106127000D01*
X160413000Y-106127000D01*
X160393000Y-106127000D01*
X160393000Y-105873000D01*
X160413000Y-105873000D01*
X160413000Y-104229223D01*
X160667000Y-104229223D01*
X160667000Y-105873000D01*
X162175000Y-105873000D01*
X162175000Y-105573000D01*
X162001942Y-104956980D01*
X161606317Y-104454078D01*
X161048355Y-104140856D01*
X160920434Y-104109876D01*
X160667000Y-104229223D01*
X160413000Y-104229223D01*
X160159566Y-104109876D01*
X160031645Y-104140856D01*
X159563789Y-104403495D01*
X159464090Y-104248559D01*
X159251890Y-104103569D01*
X159000000Y-104052560D01*
X157000000Y-104052560D01*
X156764683Y-104096838D01*
X156548559Y-104235910D01*
X156403569Y-104448110D01*
X156352560Y-104700000D01*
X151885262Y-104700000D01*
X151885326Y-104626695D01*
X151598957Y-103933628D01*
X151069161Y-103402907D01*
X150376595Y-103115328D01*
X149626695Y-103114674D01*
X148933628Y-103401043D01*
X148402907Y-103930839D01*
X148115328Y-104623405D01*
X148114674Y-105373305D01*
X146710000Y-105373305D01*
X146710000Y-101710000D01*
X205290000Y-101710000D01*
X205290000Y-140290000D01*
X205290000Y-140290000D01*
G37*
X205290000Y-140290000D02*
X146710000Y-140290000D01*
X146710000Y-137373305D01*
X148114674Y-137373305D01*
X148401043Y-138066372D01*
X148930839Y-138597093D01*
X149623405Y-138884672D01*
X150373305Y-138885326D01*
X151066372Y-138598957D01*
X151597093Y-138069161D01*
X151884672Y-137376595D01*
X151885326Y-136626695D01*
X151598957Y-135933628D01*
X151069161Y-135402907D01*
X150376595Y-135115328D01*
X149626695Y-135114674D01*
X148933628Y-135401043D01*
X148402907Y-135930839D01*
X148115328Y-136623405D01*
X148114674Y-137373305D01*
X146710000Y-137373305D01*
X146710000Y-134323694D01*
X152365226Y-134323694D01*
X152613538Y-134924655D01*
X153072927Y-135384846D01*
X153673453Y-135634206D01*
X154323694Y-135634774D01*
X154924655Y-135386462D01*
X155384846Y-134927073D01*
X155494876Y-134662091D01*
X157285000Y-134662091D01*
X157285000Y-135337909D01*
X157409457Y-135963596D01*
X157763880Y-136494029D01*
X158294313Y-136848452D01*
X158920000Y-136972909D01*
X159545687Y-136848452D01*
X160076120Y-136494029D01*
X160203219Y-136303812D01*
X160393683Y-136545922D01*
X160951645Y-136859144D01*
X161079566Y-136890124D01*
X161333000Y-136770777D01*
X161333000Y-135127000D01*
X161313000Y-135127000D01*
X161313000Y-134873000D01*
X161333000Y-134873000D01*
X161333000Y-133229223D01*
X161079566Y-133109876D01*
X160951645Y-133140856D01*
X160393683Y-133454078D01*
X160203219Y-133696188D01*
X160076120Y-133505971D01*
X159545687Y-133151548D01*
X158920000Y-133027091D01*
X158294313Y-133151548D01*
X157763880Y-133505971D01*
X157409457Y-134036404D01*
X157285000Y-134662091D01*
X155494876Y-134662091D01*
X155634206Y-134326547D01*
X155634774Y-133676306D01*
X155386462Y-133075345D01*
X154927073Y-132615154D01*
X154326547Y-132365794D01*
X153676306Y-132365226D01*
X153075345Y-132613538D01*
X152615154Y-133072927D01*
X152365794Y-133673453D01*
X152365226Y-134323694D01*
X146710000Y-134323694D01*
X146710000Y-128152163D01*
X157027443Y-128152163D01*
X157126042Y-128418965D01*
X157735582Y-128645401D01*
X158385377Y-128621341D01*
X158873958Y-128418965D01*
X158972557Y-128152163D01*
X158000000Y-127179605D01*
X157027443Y-128152163D01*
X146710000Y-128152163D01*
X146710000Y-126735582D01*
X156354599Y-126735582D01*
X156378659Y-127385377D01*
X156581035Y-127873958D01*
X156847837Y-127972557D01*
X157820395Y-127000000D01*
X158179605Y-127000000D01*
X159152163Y-127972557D01*
X159418965Y-127873958D01*
X159645401Y-127264418D01*
X159621341Y-126614623D01*
X159418965Y-126126042D01*
X159152163Y-126027443D01*
X158179605Y-127000000D01*
X157820395Y-127000000D01*
X156847837Y-126027443D01*
X156581035Y-126126042D01*
X156354599Y-126735582D01*
X146710000Y-126735582D01*
X146710000Y-125847837D01*
X157027443Y-125847837D01*
X158000000Y-126820395D01*
X158972557Y-125847837D01*
X158873958Y-125581035D01*
X158264418Y-125354599D01*
X157614623Y-125378659D01*
X157126042Y-125581035D01*
X157027443Y-125847837D01*
X146710000Y-125847837D01*
X146710000Y-119000000D01*
X147402560Y-119000000D01*
X147402560Y-121000000D01*
X147446838Y-121235317D01*
X147585910Y-121451441D01*
X147798110Y-121596431D01*
X148050000Y-121647440D01*
X148572638Y-121647440D01*
X151302599Y-124377401D01*
X151549161Y-124542148D01*
X151840000Y-124600000D01*
X152545504Y-124600000D01*
X152613538Y-124764655D01*
X153072927Y-125224846D01*
X153673453Y-125474206D01*
X154323694Y-125474774D01*
X154924655Y-125226462D01*
X155384846Y-124767073D01*
X155634206Y-124166547D01*
X155634774Y-123516306D01*
X155386462Y-122915345D01*
X154927073Y-122455154D01*
X154326547Y-122205794D01*
X153676306Y-122205226D01*
X153075345Y-122453538D01*
X152615154Y-122912927D01*
X152545779Y-123080000D01*
X152154802Y-123080000D01*
X150457235Y-121382433D01*
X150546431Y-121251890D01*
X150547055Y-121248808D01*
X150640997Y-121342914D01*
X151223341Y-121584724D01*
X151853893Y-121585275D01*
X152436657Y-121344481D01*
X152882914Y-120899003D01*
X152940633Y-120760000D01*
X167733551Y-120760000D01*
X167957189Y-121094698D01*
X168339275Y-121350000D01*
X167957189Y-121605302D01*
X167646120Y-122070849D01*
X167536887Y-122620000D01*
X167646120Y-123169151D01*
X167957189Y-123634698D01*
X168422736Y-123945767D01*
X168971887Y-124055000D01*
X169028113Y-124055000D01*
X169577264Y-123945767D01*
X170042811Y-123634698D01*
X170353880Y-123169151D01*
X170463113Y-122620000D01*
X170353880Y-122070849D01*
X170042811Y-121605302D01*
X169660725Y-121350000D01*
X170042811Y-121094698D01*
X170353880Y-120629151D01*
X170463113Y-120080000D01*
X170462595Y-120077397D01*
X173240000Y-122854802D01*
X173240000Y-127240000D01*
X166000000Y-127240000D01*
X165709161Y-127297852D01*
X165462599Y-127462599D01*
X163462599Y-129462599D01*
X163297852Y-129709161D01*
X163240000Y-130000000D01*
X163240000Y-133052560D01*
X163000000Y-133052560D01*
X162764683Y-133096838D01*
X162548559Y-133235910D01*
X162434651Y-133402620D01*
X161968355Y-133140856D01*
X161840434Y-133109876D01*
X161587000Y-133229223D01*
X161587000Y-134873000D01*
X161607000Y-134873000D01*
X161607000Y-135127000D01*
X161587000Y-135127000D01*
X161587000Y-136770777D01*
X161840434Y-136890124D01*
X161968355Y-136859144D01*
X162436211Y-136596505D01*
X162535910Y-136751441D01*
X162748110Y-136896431D01*
X163000000Y-136947440D01*
X165000000Y-136947440D01*
X165235317Y-136903162D01*
X165451441Y-136764090D01*
X165596431Y-136551890D01*
X165647440Y-136300000D01*
X165647440Y-134662091D01*
X167285000Y-134662091D01*
X167285000Y-135337909D01*
X167409457Y-135963596D01*
X167763880Y-136494029D01*
X168294313Y-136848452D01*
X168920000Y-136972909D01*
X169545687Y-136848452D01*
X170076120Y-136494029D01*
X170203219Y-136303812D01*
X170393683Y-136545922D01*
X170951645Y-136859144D01*
X171079566Y-136890124D01*
X171333000Y-136770777D01*
X171333000Y-135127000D01*
X171313000Y-135127000D01*
X171313000Y-134873000D01*
X171333000Y-134873000D01*
X171333000Y-133229223D01*
X171079566Y-133109876D01*
X170951645Y-133140856D01*
X170393683Y-133454078D01*
X170203219Y-133696188D01*
X170076120Y-133505971D01*
X169545687Y-133151548D01*
X168920000Y-133027091D01*
X168294313Y-133151548D01*
X167763880Y-133505971D01*
X167409457Y-134036404D01*
X167285000Y-134662091D01*
X165647440Y-134662091D01*
X165647440Y-133700000D01*
X165603162Y-133464683D01*
X165464090Y-133248559D01*
X165251890Y-133103569D01*
X165000000Y-133052560D01*
X164760000Y-133052560D01*
X164760000Y-130314802D01*
X166314802Y-128760000D01*
X173240000Y-128760000D01*
X173240000Y-133052560D01*
X173000000Y-133052560D01*
X172764683Y-133096838D01*
X172548559Y-133235910D01*
X172434651Y-133402620D01*
X171968355Y-133140856D01*
X171840434Y-133109876D01*
X171587000Y-133229223D01*
X171587000Y-134873000D01*
X171607000Y-134873000D01*
X171607000Y-135127000D01*
X171587000Y-135127000D01*
X171587000Y-136770777D01*
X171840434Y-136890124D01*
X171968355Y-136859144D01*
X172436211Y-136596505D01*
X172535910Y-136751441D01*
X172748110Y-136896431D01*
X173000000Y-136947440D01*
X175000000Y-136947440D01*
X175235317Y-136903162D01*
X175451441Y-136764090D01*
X175596431Y-136551890D01*
X175647440Y-136300000D01*
X175647440Y-135760000D01*
X180815453Y-135760000D01*
X180825169Y-135783515D01*
X181214436Y-136173461D01*
X181723298Y-136384759D01*
X182274285Y-136385240D01*
X182783515Y-136174831D01*
X183173461Y-135785564D01*
X183384759Y-135276702D01*
X183385240Y-134725715D01*
X183174831Y-134216485D01*
X182785564Y-133826539D01*
X182276702Y-133615241D01*
X181725715Y-133614760D01*
X181216485Y-133825169D01*
X180826539Y-134214436D01*
X180815924Y-134240000D01*
X175647440Y-134240000D01*
X175647440Y-133700000D01*
X175603162Y-133464683D01*
X175464090Y-133248559D01*
X175251890Y-133103569D01*
X175000000Y-133052560D01*
X174760000Y-133052560D01*
X174760000Y-122540000D01*
X174702148Y-122249161D01*
X174537401Y-122002599D01*
X170398688Y-117863886D01*
X170463113Y-117540000D01*
X175156887Y-117540000D01*
X175266120Y-118089151D01*
X175577189Y-118554698D01*
X175959275Y-118810000D01*
X175577189Y-119065302D01*
X175266120Y-119530849D01*
X175156887Y-120080000D01*
X175266120Y-120629151D01*
X175577189Y-121094698D01*
X175959275Y-121350000D01*
X175577189Y-121605302D01*
X175266120Y-122070849D01*
X175156887Y-122620000D01*
X175266120Y-123169151D01*
X175577189Y-123634698D01*
X176042736Y-123945767D01*
X176591887Y-124055000D01*
X176648113Y-124055000D01*
X177197264Y-123945767D01*
X177662811Y-123634698D01*
X177832995Y-123380000D01*
X184840000Y-123380000D01*
X185130839Y-123322148D01*
X185377401Y-123157401D01*
X187006782Y-121528020D01*
X187143341Y-121584724D01*
X187773893Y-121585275D01*
X188080000Y-121458794D01*
X188080000Y-129545504D01*
X187915345Y-129613538D01*
X187455154Y-130072927D01*
X187205794Y-130673453D01*
X187205226Y-131323694D01*
X187453538Y-131924655D01*
X187912927Y-132384846D01*
X188513453Y-132634206D01*
X189163694Y-132634774D01*
X189764655Y-132386462D01*
X190224846Y-131927073D01*
X190474206Y-131326547D01*
X190474208Y-131323694D01*
X197365226Y-131323694D01*
X197613538Y-131924655D01*
X198072927Y-132384846D01*
X198673453Y-132634206D01*
X199323694Y-132634774D01*
X199924655Y-132386462D01*
X200384846Y-131927073D01*
X200634206Y-131326547D01*
X200634774Y-130676306D01*
X200386462Y-130075345D01*
X199927073Y-129615154D01*
X199326547Y-129365794D01*
X198676306Y-129365226D01*
X198075345Y-129613538D01*
X197615154Y-130072927D01*
X197365794Y-130673453D01*
X197365226Y-131323694D01*
X190474208Y-131323694D01*
X190474774Y-130676306D01*
X190226462Y-130075345D01*
X189767073Y-129615154D01*
X189600000Y-129545779D01*
X189600000Y-121647440D01*
X190950000Y-121647440D01*
X191185317Y-121603162D01*
X191401441Y-121464090D01*
X191546431Y-121251890D01*
X191597440Y-121000000D01*
X191597440Y-119000000D01*
X191553162Y-118764683D01*
X191550149Y-118760000D01*
X193685198Y-118760000D01*
X194002599Y-119077401D01*
X194249160Y-119242148D01*
X194540000Y-119300000D01*
X199241293Y-119300000D01*
X199505971Y-119696120D01*
X200036404Y-120050543D01*
X200662091Y-120175000D01*
X201337909Y-120175000D01*
X201963596Y-120050543D01*
X202494029Y-119696120D01*
X202848452Y-119165687D01*
X202972909Y-118540000D01*
X202848452Y-117914313D01*
X202608907Y-117555808D01*
X202751441Y-117464090D01*
X202896431Y-117251890D01*
X202947440Y-117000000D01*
X202947440Y-115000000D01*
X202903162Y-114764683D01*
X202764090Y-114548559D01*
X202551890Y-114403569D01*
X202300000Y-114352560D01*
X201760000Y-114352560D01*
X201760000Y-110840000D01*
X201702148Y-110549161D01*
X201537401Y-110302599D01*
X200725885Y-109491083D01*
X200794206Y-109326547D01*
X200794774Y-108676306D01*
X200546462Y-108075345D01*
X200087073Y-107615154D01*
X199486547Y-107365794D01*
X198836306Y-107365226D01*
X198235345Y-107613538D01*
X197775154Y-108072927D01*
X197525794Y-108673453D01*
X197525226Y-109323694D01*
X197773538Y-109924655D01*
X198232927Y-110384846D01*
X198833453Y-110634206D01*
X199483694Y-110634774D01*
X199650889Y-110565691D01*
X200240000Y-111154802D01*
X200240000Y-114352560D01*
X199700000Y-114352560D01*
X199464683Y-114396838D01*
X199248559Y-114535910D01*
X199103569Y-114748110D01*
X199052560Y-115000000D01*
X199052560Y-117000000D01*
X199096838Y-117235317D01*
X199235910Y-117451441D01*
X199390329Y-117556951D01*
X199241293Y-117780000D01*
X194854802Y-117780000D01*
X194537401Y-117462599D01*
X194290839Y-117297852D01*
X194000000Y-117240000D01*
X184527357Y-117240000D01*
X184612431Y-117115490D01*
X184663440Y-116863600D01*
X184663440Y-115136400D01*
X184619162Y-114901083D01*
X184480090Y-114684959D01*
X184267890Y-114539969D01*
X184226561Y-114531600D01*
X184244415Y-114519670D01*
X184569271Y-114033489D01*
X184683345Y-113460000D01*
X184569271Y-112886511D01*
X184244415Y-112400330D01*
X183934931Y-112193539D01*
X184350732Y-111822036D01*
X184604709Y-111294791D01*
X184607358Y-111279026D01*
X184486217Y-111047000D01*
X183127000Y-111047000D01*
X183127000Y-111067000D01*
X182873000Y-111067000D01*
X182873000Y-111047000D01*
X181513783Y-111047000D01*
X181392642Y-111279026D01*
X181395291Y-111294791D01*
X181649268Y-111822036D01*
X182065069Y-112193539D01*
X181755585Y-112400330D01*
X181430729Y-112886511D01*
X181316655Y-113460000D01*
X181430729Y-114033489D01*
X181755585Y-114519670D01*
X181769913Y-114529243D01*
X181748683Y-114533238D01*
X181532559Y-114672310D01*
X181387569Y-114884510D01*
X181336560Y-115136400D01*
X181336560Y-115240000D01*
X178160000Y-115240000D01*
X177972490Y-115277298D01*
X177889915Y-115127000D01*
X176747000Y-115127000D01*
X176747000Y-115147000D01*
X176493000Y-115147000D01*
X176493000Y-115127000D01*
X175350085Y-115127000D01*
X175228096Y-115349039D01*
X175388959Y-115737423D01*
X175764866Y-116152389D01*
X175981703Y-116255014D01*
X175577189Y-116525302D01*
X175266120Y-116990849D01*
X175156887Y-117540000D01*
X170463113Y-117540000D01*
X170353880Y-116990849D01*
X170042811Y-116525302D01*
X169660725Y-116270000D01*
X170042811Y-116014698D01*
X170353880Y-115549151D01*
X170463113Y-115000000D01*
X170393685Y-114650961D01*
X175228096Y-114650961D01*
X175350085Y-114873000D01*
X176493000Y-114873000D01*
X176493000Y-113729371D01*
X176747000Y-113729371D01*
X176747000Y-114873000D01*
X177889915Y-114873000D01*
X178011904Y-114650961D01*
X177851041Y-114262577D01*
X177475134Y-113847611D01*
X176969041Y-113608086D01*
X176747000Y-113729371D01*
X176493000Y-113729371D01*
X176270959Y-113608086D01*
X175764866Y-113847611D01*
X175388959Y-114262577D01*
X175228096Y-114650961D01*
X170393685Y-114650961D01*
X170353880Y-114450849D01*
X170042811Y-113985302D01*
X169760000Y-113796333D01*
X169760000Y-110560974D01*
X181392642Y-110560974D01*
X181513783Y-110793000D01*
X182873000Y-110793000D01*
X182873000Y-109579076D01*
X183127000Y-109579076D01*
X183127000Y-110793000D01*
X184486217Y-110793000D01*
X184607358Y-110560974D01*
X184604709Y-110545209D01*
X184350732Y-110017964D01*
X183914320Y-109628046D01*
X183361913Y-109434816D01*
X183127000Y-109579076D01*
X182873000Y-109579076D01*
X182638087Y-109434816D01*
X182085680Y-109628046D01*
X181649268Y-110017964D01*
X181395291Y-110545209D01*
X181392642Y-110560974D01*
X169760000Y-110560974D01*
X169760000Y-109323694D01*
X187365226Y-109323694D01*
X187613538Y-109924655D01*
X188072927Y-110384846D01*
X188673453Y-110634206D01*
X189323694Y-110634774D01*
X189924655Y-110386462D01*
X190384846Y-109927073D01*
X190634206Y-109326547D01*
X190634774Y-108676306D01*
X190386462Y-108075345D01*
X189927073Y-107615154D01*
X189326547Y-107365794D01*
X188676306Y-107365226D01*
X188075345Y-107613538D01*
X187615154Y-108072927D01*
X187365794Y-108673453D01*
X187365226Y-109323694D01*
X169760000Y-109323694D01*
X169760000Y-108454496D01*
X169924655Y-108386462D01*
X170159363Y-108152163D01*
X178187443Y-108152163D01*
X178286042Y-108418965D01*
X178895582Y-108645401D01*
X179545377Y-108621341D01*
X180033958Y-108418965D01*
X180132557Y-108152163D01*
X179160000Y-107179605D01*
X178187443Y-108152163D01*
X170159363Y-108152163D01*
X170384846Y-107927073D01*
X170634206Y-107326547D01*
X170634722Y-106735582D01*
X177514599Y-106735582D01*
X177538659Y-107385377D01*
X177741035Y-107873958D01*
X178007837Y-107972557D01*
X178980395Y-107000000D01*
X179339605Y-107000000D01*
X180312163Y-107972557D01*
X180578965Y-107873958D01*
X180805401Y-107264418D01*
X180781341Y-106614623D01*
X180578965Y-106126042D01*
X180312163Y-106027443D01*
X179339605Y-107000000D01*
X178980395Y-107000000D01*
X178007837Y-106027443D01*
X177741035Y-106126042D01*
X177514599Y-106735582D01*
X170634722Y-106735582D01*
X170634774Y-106676306D01*
X170386462Y-106075345D01*
X170159351Y-105847837D01*
X178187443Y-105847837D01*
X179160000Y-106820395D01*
X180132557Y-105847837D01*
X180033958Y-105581035D01*
X179474773Y-105373305D01*
X200114674Y-105373305D01*
X200401043Y-106066372D01*
X200930839Y-106597093D01*
X201623405Y-106884672D01*
X202373305Y-106885326D01*
X203066372Y-106598957D01*
X203597093Y-106069161D01*
X203884672Y-105376595D01*
X203885326Y-104626695D01*
X203598957Y-103933628D01*
X203069161Y-103402907D01*
X202376595Y-103115328D01*
X201626695Y-103114674D01*
X200933628Y-103401043D01*
X200402907Y-103930839D01*
X200115328Y-104623405D01*
X200114674Y-105373305D01*
X179474773Y-105373305D01*
X179424418Y-105354599D01*
X178774623Y-105378659D01*
X178286042Y-105581035D01*
X178187443Y-105847837D01*
X170159351Y-105847837D01*
X169927073Y-105615154D01*
X169326547Y-105365794D01*
X168676306Y-105365226D01*
X168075345Y-105613538D01*
X167615154Y-106072927D01*
X167365794Y-106673453D01*
X167365226Y-107323694D01*
X167613538Y-107924655D01*
X168072927Y-108384846D01*
X168240000Y-108454221D01*
X168240000Y-113796333D01*
X167957189Y-113985302D01*
X167646120Y-114450849D01*
X167536887Y-115000000D01*
X167646120Y-115549151D01*
X167957189Y-116014698D01*
X168054920Y-116080000D01*
X159454496Y-116080000D01*
X159386462Y-115915345D01*
X158927073Y-115455154D01*
X158326547Y-115205794D01*
X157676306Y-115205226D01*
X157075345Y-115453538D01*
X156615154Y-115912927D01*
X156365794Y-116513453D01*
X156365226Y-117163694D01*
X156613538Y-117764655D01*
X157072927Y-118224846D01*
X157673453Y-118474206D01*
X158323694Y-118474774D01*
X158924655Y-118226462D01*
X159384846Y-117767073D01*
X159454221Y-117600000D01*
X167548822Y-117600000D01*
X167646120Y-118089151D01*
X167957189Y-118554698D01*
X168339275Y-118810000D01*
X167957189Y-119065302D01*
X167840459Y-119240000D01*
X152940947Y-119240000D01*
X152884481Y-119103343D01*
X152439003Y-118657086D01*
X151856659Y-118415276D01*
X151226107Y-118414725D01*
X150643343Y-118655519D01*
X150545663Y-118753029D01*
X150414090Y-118548559D01*
X150201890Y-118403569D01*
X149950000Y-118352560D01*
X148050000Y-118352560D01*
X147814683Y-118396838D01*
X147598559Y-118535910D01*
X147453569Y-118748110D01*
X147402560Y-119000000D01*
X146710000Y-119000000D01*
X146710000Y-112422815D01*
X147864630Y-112422815D01*
X148188980Y-113207800D01*
X148789041Y-113808909D01*
X149573459Y-114134628D01*
X150422815Y-114135370D01*
X151207800Y-113811020D01*
X151808909Y-113210959D01*
X152134628Y-112426541D01*
X152135370Y-111577185D01*
X151811020Y-110792200D01*
X151210959Y-110191091D01*
X150426541Y-109865372D01*
X149577185Y-109864630D01*
X148792200Y-110188980D01*
X148191091Y-110789041D01*
X147865372Y-111573459D01*
X147864630Y-112422815D01*
X146710000Y-112422815D01*
X146710000Y-105373305D01*
X148114674Y-105373305D01*
X148401043Y-106066372D01*
X148930839Y-106597093D01*
X149623405Y-106884672D01*
X150373305Y-106885326D01*
X151066372Y-106598957D01*
X151597093Y-106069161D01*
X151884672Y-105376595D01*
X151885262Y-104700000D01*
X156352560Y-104700000D01*
X156352560Y-107300000D01*
X156396838Y-107535317D01*
X156535910Y-107751441D01*
X156748110Y-107896431D01*
X157000000Y-107947440D01*
X159000000Y-107947440D01*
X159235317Y-107903162D01*
X159451441Y-107764090D01*
X159565349Y-107597380D01*
X160031645Y-107859144D01*
X160159566Y-107890124D01*
X160413000Y-107770777D01*
X160413000Y-106127000D01*
X160667000Y-106127000D01*
X160667000Y-107770777D01*
X160920434Y-107890124D01*
X161048355Y-107859144D01*
X161606317Y-107545922D01*
X162001942Y-107043020D01*
X162175000Y-106427000D01*
X162175000Y-106127000D01*
X160667000Y-106127000D01*
X160413000Y-106127000D01*
X160393000Y-106127000D01*
X160393000Y-105873000D01*
X160413000Y-105873000D01*
X160413000Y-104229223D01*
X160667000Y-104229223D01*
X160667000Y-105873000D01*
X162175000Y-105873000D01*
X162175000Y-105573000D01*
X162001942Y-104956980D01*
X161606317Y-104454078D01*
X161048355Y-104140856D01*
X160920434Y-104109876D01*
X160667000Y-104229223D01*
X160413000Y-104229223D01*
X160159566Y-104109876D01*
X160031645Y-104140856D01*
X159563789Y-104403495D01*
X159464090Y-104248559D01*
X159251890Y-104103569D01*
X159000000Y-104052560D01*
X157000000Y-104052560D01*
X156764683Y-104096838D01*
X156548559Y-104235910D01*
X156403569Y-104448110D01*
X156352560Y-104700000D01*
X151885262Y-104700000D01*
X151885326Y-104626695D01*
X151598957Y-103933628D01*
X151069161Y-103402907D01*
X150376595Y-103115328D01*
X149626695Y-103114674D01*
X148933628Y-103401043D01*
X148402907Y-103930839D01*
X148115328Y-104623405D01*
X148114674Y-105373305D01*
X146710000Y-105373305D01*
X146710000Y-101710000D01*
X205290000Y-101710000D01*
X205290000Y-140290000D01*
M02*
